<?xml version="1.0" encoding="UTF-8" standalone="no"?>
<!-- Created with Inkscape (http://www.inkscape.org/) -->

<svg
   xmlns:dc="http://purl.org/dc/elements/1.1/"
   xmlns:cc="http://creativecommons.org/ns#"
   xmlns:rdf="http://www.w3.org/1999/02/22-rdf-syntax-ns#"
   xmlns:svg="http://www.w3.org/2000/svg"
   xmlns="http://www.w3.org/2000/svg"
   xmlns:sodipodi="http://sodipodi.sourceforge.net/DTD/sodipodi-0.dtd"
   xmlns:inkscape="http://www.inkscape.org/namespaces/inkscape"
   width="190mm"
   height="80mm"
   viewBox="0 0 673.22835 283.46457"
   id="svg4194"
   version="1.1"
   inkscape:version="0.91 r13725"
   sodipodi:docname="bitrepresentation.svg">
  <defs
     id="defs4196" />
  <sodipodi:namedview
     id="base"
     pagecolor="#ffffff"
     bordercolor="#666666"
     borderopacity="1.0"
     inkscape:pageopacity="0.0"
     inkscape:pageshadow="2"
     inkscape:zoom="0.77167979"
     inkscape:cx="444.89439"
     inkscape:cy="215.97524"
     inkscape:document-units="px"
     inkscape:current-layer="layer1"
     showgrid="false"
     inkscape:window-width="1366"
     inkscape:window-height="699"
     inkscape:window-x="-9"
     inkscape:window-y="-9"
     inkscape:window-maximized="1" />
  <metadata
     id="metadata4199">
    <rdf:RDF>
      <cc:Work
         rdf:about="">
        <dc:format>image/svg+xml</dc:format>
        <dc:type
           rdf:resource="http://purl.org/dc/dcmitype/StillImage" />
        <dc:title></dc:title>
      </cc:Work>
    </rdf:RDF>
  </metadata>
  <g
     inkscape:label="Layer 1"
     inkscape:groupmode="layer"
     id="layer1"
     transform="translate(0,-768.89764)">
    <text
       xml:space="preserve"
       style="font-style:normal;font-weight:normal;font-size:40px;line-height:125%;font-family:Sans;letter-spacing:0px;word-spacing:0px;fill:#000000;fill-opacity:1;stroke:none;stroke-width:1px;stroke-linecap:butt;stroke-linejoin:miter;stroke-opacity:1"
       x="142.54208"
       y="773.43091"
       id="text4744"
       sodipodi:linespacing="125%"><tspan
         sodipodi:role="line"
         id="tspan4746"
         x="142.54208"
         y="773.43091" /></text>
    <g
       style="font-style:normal;font-weight:normal;font-size:40px;line-height:125%;font-family:Sans;letter-spacing:0px;word-spacing:0px;fill:#000000;fill-opacity:1;stroke:none;stroke-width:1px;stroke-linecap:butt;stroke-linejoin:miter;stroke-opacity:1"
       id="text4756">
      <path
         d="m 11.730934,852.78546 8.28125,0 0,2.79297 -4.6875,0 0,30.07813 4.6875,0 0,2.79296 -8.28125,0 0,-35.66406 z"
         style=""
         id="path4889" />
      <path
         d="m 36.633278,856.61359 q -3.046875,0 -4.589844,3.00781 -1.523437,2.98828 -1.523437,9.00391 0,5.99609 1.523437,9.0039 1.542969,2.98828 4.589844,2.98828 3.066406,0 4.589844,-2.98828 1.542968,-3.00781 1.542968,-9.0039 0,-6.01563 -1.542968,-9.00391 -1.523438,-3.00781 -4.589844,-3.00781 z m 0,-3.125 q 4.902344,0 7.480469,3.88672 2.597656,3.86718 2.597656,11.25 0,7.36328 -2.597656,11.25 -2.578125,3.86718 -7.480469,3.86718 -4.902344,0 -7.5,-3.86718 -2.578125,-3.88672 -2.578125,-11.25 0,-7.38282 2.578125,-11.25 2.597656,-3.88672 7.5,-3.88672 z"
         style=""
         id="path4891" />
      <path
         d="m 54.074684,878.21515 4.121094,0 0,3.35937 -3.203125,6.25 -2.519531,0 1.601562,-6.25 0,-3.35937 z"
         style=""
         id="path4893" />
      <path
         d="m 79.816872,879.85577 6.445312,0 0,-22.24609 -7.011719,1.40625 0,-3.59375 6.972657,-1.40625 3.945312,0 0,25.83984 6.445313,0 0,3.32032 -16.796875,0 0,-3.32032 z"
         style=""
         id="path4895" />
      <path
         d="m 105.01218,878.21515 4.1211,0 0,3.35937 -3.20313,6.25 -2.51953,0 1.60156,-6.25 0,-3.35937 z"
         style=""
         id="path4897" />
      <path
         d="m 138.50828,856.61359 q -3.04688,0 -4.58985,3.00781 -1.52343,2.98828 -1.52343,9.00391 0,5.99609 1.52343,9.0039 1.54297,2.98828 4.58985,2.98828 3.0664,0 4.58984,-2.98828 1.54297,-3.00781 1.54297,-9.0039 0,-6.01563 -1.54297,-9.00391 -1.52344,-3.00781 -4.58984,-3.00781 z m 0,-3.125 q 4.90234,0 7.48047,3.88672 2.59765,3.86718 2.59765,11.25 0,7.36328 -2.59765,11.25 -2.57813,3.86718 -7.48047,3.86718 -4.90235,0 -7.5,-3.86718 -2.57813,-3.88672 -2.57813,-11.25 0,-7.38282 2.57813,-11.25 2.59765,-3.88672 7.5,-3.88672 z"
         style=""
         id="path4899" />
      <path
         d="m 155.94968,878.21515 4.1211,0 0,3.35937 -3.20313,6.25 -2.51953,0 1.60156,-6.25 0,-3.35937 z"
         style=""
         id="path4901" />
      <path
         d="m 181.69187,879.85577 6.44531,0 0,-22.24609 -7.01171,1.40625 0,-3.59375 6.97265,-1.40625 3.94531,0 0,25.83984 6.44532,0 0,3.32032 -16.79688,0 0,-3.32032 z"
         style=""
         id="path4903" />
      <path
         d="m 206.88718,878.21515 4.1211,0 0,3.35937 -3.20313,6.25 -2.51953,0 1.60156,-6.25 0,-3.35937 z"
         style=""
         id="path4905" />
      <path
         d="m 232.62937,879.85577 6.44531,0 0,-22.24609 -7.01171,1.40625 0,-3.59375 6.97265,-1.40625 3.94531,0 0,25.83984 6.44532,0 0,3.32032 -16.79688,0 0,-3.32032 z"
         style=""
         id="path4907" />
      <path
         d="m 257.82468,878.21515 4.1211,0 0,3.35937 -3.20313,6.25 -2.51953,0 1.60156,-6.25 0,-3.35937 z"
         style=""
         id="path4909" />
      <path
         d="m 291.32078,856.61359 q -3.04688,0 -4.58985,3.00781 -1.52343,2.98828 -1.52343,9.00391 0,5.99609 1.52343,9.0039 1.54297,2.98828 4.58985,2.98828 3.0664,0 4.58984,-2.98828 1.54297,-3.00781 1.54297,-9.0039 0,-6.01563 -1.54297,-9.00391 -1.52344,-3.00781 -4.58984,-3.00781 z m 0,-3.125 q 4.90234,0 7.48047,3.88672 2.59765,3.86718 2.59765,11.25 0,7.36328 -2.59765,11.25 -2.57813,3.86718 -7.48047,3.86718 -4.90235,0 -7.5,-3.86718 -2.57813,-3.88672 -2.57813,-11.25 0,-7.38282 2.57813,-11.25 2.59765,-3.88672 7.5,-3.88672 z"
         style=""
         id="path4911" />
      <path
         d="m 308.76218,878.21515 4.1211,0 0,3.35937 -3.20313,6.25 -2.51953,0 1.60156,-6.25 0,-3.35937 z"
         style=""
         id="path4913" />
      <path
         d="m 342.25828,856.61359 q -3.04688,0 -4.58985,3.00781 -1.52343,2.98828 -1.52343,9.00391 0,5.99609 1.52343,9.0039 1.54297,2.98828 4.58985,2.98828 3.0664,0 4.58984,-2.98828 1.54297,-3.00781 1.54297,-9.0039 0,-6.01563 -1.54297,-9.00391 -1.52344,-3.00781 -4.58984,-3.00781 z m 0,-3.125 q 4.90234,0 7.48047,3.88672 2.59765,3.86718 2.59765,11.25 0,7.36328 -2.59765,11.25 -2.57813,3.86718 -7.48047,3.86718 -4.90235,0 -7.5,-3.86718 -2.57813,-3.88672 -2.57813,-11.25 0,-7.38282 2.57813,-11.25 2.59765,-3.88672 7.5,-3.88672 z"
         style=""
         id="path4915" />
      <path
         d="m 359.69968,878.21515 4.1211,0 0,3.35937 -3.20313,6.25 -2.51953,0 1.60156,-6.25 0,-3.35937 z"
         style=""
         id="path4917" />
      <path
         d="m 384.75828,878.21515 4.12109,0 0,4.96094 -4.12109,0 0,-4.96094 z"
         style=""
         id="path4919" />
      <path
         d="m 397.49265,878.21515 4.1211,0 0,4.96094 -4.1211,0 0,-4.96094 z"
         style=""
         id="path4921" />
      <path
         d="m 410.22703,878.21515 4.12109,0 0,4.96094 -4.12109,0 0,-4.96094 z"
         style=""
         id="path4923" />
      <path
         d="m 430.85203,852.78546 0,35.66406 -8.28125,0 0,-2.79296 4.66797,0 0,-30.07813 -4.66797,0 0,-2.79297 8.28125,0 z"
         style=""
         id="path4925" />
    </g>
    <g
       style="font-style:normal;font-weight:normal;font-size:40px;line-height:125%;font-family:Sans;letter-spacing:0px;word-spacing:0px;fill:#000000;fill-opacity:1;stroke:none;stroke-width:1px;stroke-linecap:butt;stroke-linejoin:miter;stroke-opacity:1"
       id="text4760">
      <path
         d="m 8.6544876,1007.0789 8.2812504,0 0,2.7929 -4.6875,0 0,30.0782 4.6875,0 0,2.7929 -8.2812504,0 0,-35.664 z"
         style=""
         id="path4928" />
      <path
         d="m 33.556831,1010.907 q -3.046875,0 -4.589843,3.0078 -1.523438,2.9883 -1.523438,9.0039 0,5.9961 1.523438,9.0039 1.542968,2.9883 4.589843,2.9883 3.066407,0 4.589844,-2.9883 1.542969,-3.0078 1.542969,-9.0039 0,-6.0156 -1.542969,-9.0039 -1.523437,-3.0078 -4.589844,-3.0078 z m 0,-3.125 q 4.902344,0 7.480469,3.8867 2.597656,3.8672 2.597656,11.25 0,7.3633 -2.597656,11.25 -2.578125,3.8672 -7.480469,3.8672 -4.902343,0 -7.5,-3.8672 -2.578125,-3.8867 -2.578125,-11.25 0,-7.3828 2.578125,-11.25 2.597657,-3.8867 7.5,-3.8867 z"
         style=""
         id="path4930" />
      <path
         d="m 51.271675,1034.1492 6.445313,0 0,-22.2461 -7.011719,1.4062 0,-3.5937 6.972656,-1.4063 3.945313,0 0,25.8399 6.445312,0 0,3.3203 -16.796875,0 0,-3.3203 z"
         style=""
         id="path4932" />
      <path
         d="m 84.494331,1010.907 q -3.046875,0 -4.589843,3.0078 -1.523438,2.9883 -1.523438,9.0039 0,5.9961 1.523438,9.0039 1.542968,2.9883 4.589843,2.9883 3.066407,0 4.589844,-2.9883 1.542969,-3.0078 1.542969,-9.0039 0,-6.0156 -1.542969,-9.0039 -1.523437,-3.0078 -4.589844,-3.0078 z m 0,-3.125 q 4.902344,0 7.480469,3.8867 2.597656,3.8672 2.597656,11.25 0,7.3633 -2.597656,11.25 -2.578125,3.8672 -7.480469,3.8672 -4.902343,0 -7.5,-3.8672 -2.578125,-3.8867 -2.578125,-11.25 0,-7.3828 2.578125,-11.25 2.597657,-3.8867 7.5,-3.8867 z"
         style=""
         id="path4934" />
      <path
         d="m 102.20918,1034.1492 6.44531,0 0,-22.2461 -7.01172,1.4062 0,-3.5937 6.97266,-1.4063 3.94531,0 0,25.8399 6.44531,0 0,3.3203 -16.79687,0 0,-3.3203 z"
         style=""
         id="path4936" />
      <path
         d="m 127.67793,1034.1492 6.44531,0 0,-22.2461 -7.01172,1.4062 0,-3.5937 6.97266,-1.4063 3.94531,0 0,25.8399 6.44531,0 0,3.3203 -16.79687,0 0,-3.3203 z"
         style=""
         id="path4938" />
      <path
         d="m 152.46308,1032.5085 4.1211,0 0,4.961 -4.1211,0 0,-4.961 z"
         style=""
         id="path4940" />
      <path
         d="m 165.19746,1032.5085 4.12109,0 0,4.961 -4.12109,0 0,-4.961 z"
         style=""
         id="path4942" />
      <path
         d="m 177.93183,1032.5085 4.1211,0 0,4.961 -4.1211,0 0,-4.961 z"
         style=""
         id="path4944" />
      <path
         d="m 191.07636,1032.5085 4.1211,0 0,3.3594 -3.20313,6.25 -2.51953,0 1.60156,-6.25 0,-3.3594 z"
         style=""
         id="path4946" />
      <path
         d="m 224.57246,1010.907 q -3.04688,0 -4.58985,3.0078 -1.52343,2.9883 -1.52343,9.0039 0,5.9961 1.52343,9.0039 1.54297,2.9883 4.58985,2.9883 3.0664,0 4.58984,-2.9883 1.54297,-3.0078 1.54297,-9.0039 0,-6.0156 -1.54297,-9.0039 -1.52344,-3.0078 -4.58984,-3.0078 z m 0,-3.125 q 4.90234,0 7.48047,3.8867 2.59765,3.8672 2.59765,11.25 0,7.3633 -2.59765,11.25 -2.57813,3.8672 -7.48047,3.8672 -4.90235,0 -7.5,-3.8672 -2.57813,-3.8867 -2.57813,-11.25 0,-7.3828 2.57813,-11.25 2.59765,-3.8867 7.5,-3.8867 z"
         style=""
         id="path4948" />
      <path
         d="m 250.04121,1010.907 q -3.04688,0 -4.58985,3.0078 -1.52343,2.9883 -1.52343,9.0039 0,5.9961 1.52343,9.0039 1.54297,2.9883 4.58985,2.9883 3.0664,0 4.58984,-2.9883 1.54297,-3.0078 1.54297,-9.0039 0,-6.0156 -1.54297,-9.0039 -1.52344,-3.0078 -4.58984,-3.0078 z m 0,-3.125 q 4.90234,0 7.48047,3.8867 2.59765,3.8672 2.59765,11.25 0,7.3633 -2.59765,11.25 -2.57813,3.8672 -7.48047,3.8672 -4.90235,0 -7.5,-3.8672 -2.57813,-3.8867 -2.57813,-11.25 0,-7.3828 2.57813,-11.25 2.59765,-3.8867 7.5,-3.8867 z"
         style=""
         id="path4950" />
      <path
         d="m 267.75605,1034.1492 6.44531,0 0,-22.2461 -7.01172,1.4062 0,-3.5937 6.97266,-1.4063 3.94531,0 0,25.8399 6.44532,0 0,3.3203 -16.79688,0 0,-3.3203 z"
         style=""
         id="path4952" />
      <path
         d="m 300.97871,1010.907 q -3.04688,0 -4.58985,3.0078 -1.52343,2.9883 -1.52343,9.0039 0,5.9961 1.52343,9.0039 1.54297,2.9883 4.58985,2.9883 3.0664,0 4.58984,-2.9883 1.54297,-3.0078 1.54297,-9.0039 0,-6.0156 -1.54297,-9.0039 -1.52344,-3.0078 -4.58984,-3.0078 z m 0,-3.125 q 4.90234,0 7.48047,3.8867 2.59765,3.8672 2.59765,11.25 0,7.3633 -2.59765,11.25 -2.57813,3.8672 -7.48047,3.8672 -4.90235,0 -7.5,-3.8672 -2.57813,-3.8867 -2.57813,-11.25 0,-7.3828 2.57813,-11.25 2.59765,-3.8867 7.5,-3.8867 z"
         style=""
         id="path4954" />
      <path
         d="m 318.69355,1034.1492 6.44531,0 0,-22.2461 -7.01172,1.4062 0,-3.5937 6.97266,-1.4063 3.94531,0 0,25.8399 6.44532,0 0,3.3203 -16.79688,0 0,-3.3203 z"
         style=""
         id="path4956" />
      <path
         d="m 343.47871,1032.5085 4.12109,0 0,4.961 -4.12109,0 0,-4.961 z"
         style=""
         id="path4958" />
      <path
         d="m 356.21308,1032.5085 4.1211,0 0,4.961 -4.1211,0 0,-4.961 z"
         style=""
         id="path4960" />
      <path
         d="m 368.94746,1032.5085 4.12109,0 0,4.961 -4.12109,0 0,-4.961 z"
         style=""
         id="path4962" />
      <path
         d="m 382.09199,1032.5085 4.12109,0 0,3.3594 -3.20312,6.25 -2.51953,0 1.60156,-6.25 0,-3.3594 z"
         style=""
         id="path4964" />
      <path
         d="m 407.83418,1034.1492 6.44531,0 0,-22.2461 -7.01172,1.4062 0,-3.5937 6.97266,-1.4063 3.94531,0 0,25.8399 6.44531,0 0,3.3203 -16.79687,0 0,-3.3203 z"
         style=""
         id="path4966" />
      <path
         d="m 433.30293,1034.1492 6.44531,0 0,-22.2461 -7.01172,1.4062 0,-3.5937 6.97266,-1.4063 3.94531,0 0,25.8399 6.44531,0 0,3.3203 -16.79687,0 0,-3.3203 z"
         style=""
         id="path4968" />
      <path
         d="m 466.52558,1010.907 q -3.04687,0 -4.58984,3.0078 -1.52344,2.9883 -1.52344,9.0039 0,5.9961 1.52344,9.0039 1.54297,2.9883 4.58984,2.9883 3.06641,0 4.58985,-2.9883 1.54296,-3.0078 1.54296,-9.0039 0,-6.0156 -1.54296,-9.0039 -1.52344,-3.0078 -4.58985,-3.0078 z m 0,-3.125 q 4.90235,0 7.48047,3.8867 2.59766,3.8672 2.59766,11.25 0,7.3633 -2.59766,11.25 -2.57812,3.8672 -7.48047,3.8672 -4.90234,0 -7.5,-3.8672 -2.57812,-3.8867 -2.57812,-11.25 0,-7.3828 2.57812,-11.25 2.59766,-3.8867 7.5,-3.8867 z"
         style=""
         id="path4970" />
      <path
         d="m 484.24043,1034.1492 6.44531,0 0,-22.2461 -7.01172,1.4062 0,-3.5937 6.97266,-1.4063 3.94531,0 0,25.8399 6.44531,0 0,3.3203 -16.79687,0 0,-3.3203 z"
         style=""
         id="path4972" />
      <path
         d="m 509.70918,1034.1492 6.44531,0 0,-22.2461 -7.01172,1.4062 0,-3.5937 6.97266,-1.4063 3.94531,0 0,25.8399 6.44531,0 0,3.3203 -16.79687,0 0,-3.3203 z"
         style=""
         id="path4974" />
      <path
         d="m 534.49433,1032.5085 4.1211,0 0,4.961 -4.1211,0 0,-4.961 z"
         style=""
         id="path4976" />
      <path
         d="m 547.22871,1032.5085 4.12109,0 0,4.961 -4.12109,0 0,-4.961 z"
         style=""
         id="path4978" />
      <path
         d="m 559.96308,1032.5085 4.1211,0 0,4.961 -4.1211,0 0,-4.961 z"
         style=""
         id="path4980" />
      <path
         d="m 573.10761,1032.5085 4.1211,0 0,3.3594 -3.20313,6.25 -2.51953,0 1.60156,-6.25 0,-3.3594 z"
         style=""
         id="path4982" />
      <path
         d="m 585.43183,1032.5085 4.1211,0 0,4.961 -4.1211,0 0,-4.961 z"
         style=""
         id="path4984" />
      <path
         d="m 598.16621,1032.5085 4.12109,0 0,4.961 -4.12109,0 0,-4.961 z"
         style=""
         id="path4986" />
      <path
         d="m 610.90058,1032.5085 4.1211,0 0,4.961 -4.1211,0 0,-4.961 z"
         style=""
         id="path4988" />
      <path
         d="m 631.52558,1007.0789 0,35.664 -8.28125,0 0,-2.7929 4.66797,0 0,-30.0782 -4.66797,0 0,-2.7929 8.28125,0 z"
         style=""
         id="path4990" />
    </g>
    <path
       style="fill:none;fill-rule:evenodd;stroke:#000000;stroke-width:1px;stroke-linecap:butt;stroke-linejoin:miter;stroke-opacity:1"
       d="M 34.95598,844.20776 33.9305,807.29039 82.12819,845.23325 33.9305,807.29039 133.40232,843.18228"
       id="path4764"
       inkscape:connector-curvature="0" />
    <g
       style="font-style:normal;font-weight:normal;font-size:40px;line-height:125%;font-family:Sans;letter-spacing:0px;word-spacing:0px;fill:#000000;fill-opacity:1;stroke:none;stroke-width:1px;stroke-linecap:butt;stroke-linejoin:miter;stroke-opacity:1"
       id="text4766">
      <path
         d="m 12.798011,780.70856 11.523437,0 0,2.07519 -9.057617,0 0,5.39551 8.679199,0 0,2.0752 -8.679199,0 0,6.604 9.277344,0 0,2.07519 -11.743164,0 0,-18.22509 z"
         style="font-size:25px"
         id="path4993" />
      <path
         d="m 34.734046,792.0611 q -2.722168,0 -3.771973,0.62255 -1.049804,0.62256 -1.049804,2.12403 0,1.19629 0.78125,1.9043 0.793457,0.6958 2.148437,0.6958 1.867676,0 2.990723,-1.31836 1.135254,-1.33057 1.135254,-3.52784 l 0,-0.50048 -2.233887,0 z m 4.47998,-0.92774 0,7.80029 -2.246093,0 0,-2.07519 q -0.769043,1.24512 -1.916504,1.84326 -1.147461,0.58594 -2.807617,0.58594 -2.09961,0 -3.344727,-1.17188 -1.23291,-1.18408 -1.23291,-3.16162 0,-2.30713 1.538086,-3.479 1.550293,-1.17188 4.614258,-1.17188 l 3.149414,0 0,-0.21972 q 0,-1.5503 -1.025391,-2.39258 -1.013184,-0.85449 -2.856445,-0.85449 -1.171875,0 -2.282715,0.28076 -1.11084,0.28076 -2.136231,0.84228 l 0,-2.07519 q 1.232911,-0.47608 2.392579,-0.70801 1.159668,-0.24414 2.2583,-0.24414 2.966309,0 4.431153,1.53809 1.464843,1.53808 1.464843,4.66308 z"
         style="font-size:25px"
         id="path4995" />
      <path
         d="m 53.691566,785.78668 0,2.09961 q -0.952149,-0.5249 -1.916504,-0.78125 -0.952149,-0.26855 -1.928711,-0.26855 -2.185059,0 -3.393555,1.3916 -1.208496,1.37939 -1.208496,3.88183 0,2.50245 1.208496,3.89405 1.208496,1.37939 3.393555,1.37939 0.976562,0 1.928711,-0.25635 0.964355,-0.26855 1.916504,-0.79345 l 0,2.07519 q -0.939942,0.43946 -1.953125,0.65918 -1.000977,0.21973 -2.136231,0.21973 -3.088379,0 -4.907227,-1.94092 -1.818847,-1.94092 -1.818847,-5.23682 0,-3.34472 1.831055,-5.26123 1.843261,-1.9165 5.041503,-1.9165 1.037598,0 2.026368,0.21973 0.988769,0.20752 1.916504,0.63476 z"
         style="font-size:25px"
         id="path4997" />
      <path
         d="m 68.986976,790.6817 0,8.25195 -2.246094,0 0,-8.17871 q 0,-1.94091 -0.756836,-2.90527 -0.756836,-0.96436 -2.270508,-0.96436 -1.818847,0 -2.868652,1.15967 -1.049805,1.15967 -1.049805,3.16162 l 0,7.72705 -2.258301,0 0,-18.99414 2.258301,0 0,7.44629 q 0.805664,-1.23291 1.89209,-1.84326 1.098633,-0.61035 2.526855,-0.61035 2.355957,0 3.564454,1.46484 1.208496,1.45264 1.208496,4.28467 z"
         style="font-size:25px"
         id="path4999" />
      <path
         d="m 93.144691,791.53619 0,1.09864 -10.327149,0 q 0.146484,2.31933 1.391602,3.54004 1.257324,1.20849 3.491211,1.20849 1.293945,0 2.502441,-0.31738 1.220703,-0.31738 2.416992,-0.95215 l 0,2.12402 q -1.208496,0.5127 -2.478027,0.78125 -1.269531,0.26856 -2.575684,0.26856 -3.271484,0 -5.187988,-1.9043 -1.904297,-1.9043 -1.904297,-5.15137 0,-3.35693 1.806641,-5.32226 1.818847,-1.97754 4.895019,-1.97754 2.758789,0 4.35791,1.78223 1.611329,1.77002 1.611329,4.82177 z m -2.246094,-0.65918 q -0.02441,-1.84326 -1.037598,-2.94189 -1.000976,-1.09863 -2.661133,-1.09863 -1.879883,0 -3.015136,1.06201 -1.123047,1.06201 -1.293946,2.99072 l 8.007813,-0.0122 z"
         style="font-size:25px"
         id="path5001" />
      <path
         d="m 96.831214,779.93951 2.246094,0 0,18.99414 -2.246094,0 0,-18.99414 z"
         style="font-size:25px"
         id="path5003" />
      <path
         d="m 115.45914,791.53619 0,1.09864 -10.32714,0 q 0.14648,2.31933 1.3916,3.54004 1.25732,1.20849 3.49121,1.20849 1.29394,0 2.50244,-0.31738 1.2207,-0.31738 2.41699,-0.95215 l 0,2.12402 q -1.20849,0.5127 -2.47803,0.78125 -1.26953,0.26856 -2.57568,0.26856 -3.27148,0 -5.18799,-1.9043 -1.90429,-1.9043 -1.90429,-5.15137 0,-3.35693 1.80664,-5.32226 1.81884,-1.97754 4.89502,-1.97754 2.75878,0 4.35791,1.78223 1.61132,1.77002 1.61132,4.82177 z m -2.24609,-0.65918 q -0.0244,-1.84326 -1.0376,-2.94189 -1.00097,-1.09863 -2.66113,-1.09863 -1.87988,0 -3.01514,1.06201 -1.12304,1.06201 -1.29394,2.99072 l 8.00781,-0.0122 z"
         style="font-size:25px"
         id="path5005" />
      <path
         d="m 129.7902,787.88629 q 0.84228,-1.51367 2.01416,-2.23389 1.17187,-0.72021 2.75879,-0.72021 2.13623,0 3.2959,1.50146 1.15966,1.48926 1.15966,4.24805 l 0,8.25195 -2.2583,0 0,-8.17871 q 0,-1.96533 -0.6958,-2.91748 -0.6958,-0.95215 -2.12402,-0.95215 -1.74561,0 -2.75879,1.15967 -1.01318,1.15967 -1.01318,3.16162 l 0,7.72705 -2.2583,0 0,-8.17871 q 0,-1.97754 -0.69581,-2.91748 -0.6958,-0.95215 -2.14843,-0.95215 -1.72119,0 -2.73438,1.17188 -1.01318,1.15967 -1.01318,3.14941 l 0,7.72705 -2.2583,0 0,-13.67187 2.2583,0 0,2.12402 q 0.76904,-1.25732 1.84326,-1.85547 1.07422,-0.59814 2.55127,-0.59814 1.48926,0 2.52686,0.75684 1.0498,0.75683 1.55029,2.19726 z"
         style="font-size:25px"
         id="path5007" />
      <path
         d="m 155.20524,791.53619 0,1.09864 -10.32715,0 q 0.14648,2.31933 1.3916,3.54004 1.25732,1.20849 3.49121,1.20849 1.29395,0 2.50244,-0.31738 1.22071,-0.31738 2.417,-0.95215 l 0,2.12402 q -1.2085,0.5127 -2.47803,0.78125 -1.26953,0.26856 -2.57569,0.26856 -3.27148,0 -5.18798,-1.9043 -1.9043,-1.9043 -1.9043,-5.15137 0,-3.35693 1.80664,-5.32226 1.81885,-1.97754 4.89502,-1.97754 2.75879,0 4.35791,1.78223 1.61133,1.77002 1.61133,4.82177 z m -2.2461,-0.65918 q -0.0244,-1.84326 -1.03759,-2.94189 -1.00098,-1.09863 -2.66114,-1.09863 -1.87988,0 -3.01513,1.06201 -1.12305,1.06201 -1.29395,2.99072 l 8.00781,-0.0122 z"
         style="font-size:25px"
         id="path5009" />
      <path
         d="m 170.25651,790.6817 0,8.25195 -2.2461,0 0,-8.17871 q 0,-1.94091 -0.75683,-2.90527 -0.75684,-0.96436 -2.27051,-0.96436 -1.81885,0 -2.86865,1.15967 -1.04981,1.15967 -1.04981,3.16162 l 0,7.72705 -2.2583,0 0,-13.67187 2.2583,0 0,2.12402 q 0.80567,-1.23291 1.89209,-1.84326 1.09864,-0.61035 2.52686,-0.61035 2.35595,0 3.56445,1.46484 1.2085,1.45264 1.2085,4.28467 z"
         style="font-size:25px"
         id="path5011" />
      <path
         d="m 176.98258,781.37994 0,3.88184 4.62647,0 0,1.74561 -4.62647,0 0,7.42187 q 0,1.67236 0.45166,2.14844 0.46387,0.47607 1.86768,0.47607 l 2.30713,0 0,1.87988 -2.30713,0 q -2.6001,0 -3.58887,-0.96435 -0.98877,-0.97656 -0.98877,-3.54004 l 0,-7.42187 -1.64795,0 0,-1.74561 1.64795,0 0,-3.88184 2.2583,0 z"
         style="font-size:25px"
         id="path5013" />
      <path
         d="m 192.53434,785.26178 2.24609,0 0,13.67187 -2.24609,0 0,-13.67187 z m 0,-5.32227 2.24609,0 0,2.84424 -2.24609,0 0,-2.84424 z"
         style="font-size:25px"
         id="path5015" />
      <path
         d="m 208.18375,785.66461 0,2.12403 q -0.95215,-0.48829 -1.97754,-0.73243 -1.02539,-0.24414 -2.12402,-0.24414 -1.67236,0 -2.51465,0.5127 -0.83008,0.51269 -0.83008,1.53808 0,0.78125 0.59815,1.23291 0.59814,0.43946 2.40478,0.84229 l 0.76905,0.1709 q 2.39257,0.51269 3.39355,1.45263 1.01318,0.92774 1.01318,2.6001 0,1.9043 -1.51367,3.01514 -1.50146,1.11084 -4.13818,1.11084 -1.09863,0 -2.29492,-0.21973 -1.18408,-0.20752 -2.50244,-0.63476 l 0,-2.31934 q 1.24511,0.64697 2.45361,0.97656 1.2085,0.31739 2.39258,0.31739 1.58691,0 2.4414,-0.53711 0.8545,-0.54932 0.8545,-1.53809 0,-0.91553 -0.62256,-1.40381 -0.61035,-0.48828 -2.69776,-0.93994 l -0.78125,-0.1831 q -2.0874,-0.43946 -3.01513,-1.34278 -0.92774,-0.91553 -0.92774,-2.50244 0,-1.92871 1.36719,-2.97852 1.36719,-1.0498 3.88184,-1.0498 1.24511,0 2.34375,0.18311 1.09863,0.1831 2.02636,0.54931 z"
         style="font-size:25px"
         id="path5017" />
      <path
         d="m 226.67741,792.0611 q -2.72217,0 -3.77198,0.62255 -1.0498,0.62256 -1.0498,2.12403 0,1.19629 0.78125,1.9043 0.79346,0.6958 2.14844,0.6958 1.86767,0 2.99072,-1.31836 1.13525,-1.33057 1.13525,-3.52784 l 0,-0.50048 -2.23388,0 z m 4.47998,-0.92774 0,7.80029 -2.2461,0 0,-2.07519 q -0.76904,1.24512 -1.9165,1.84326 -1.14746,0.58594 -2.80762,0.58594 -2.09961,0 -3.34473,-1.17188 -1.23291,-1.18408 -1.23291,-3.16162 0,-2.30713 1.53809,-3.479 1.55029,-1.17188 4.61426,-1.17188 l 3.14941,0 0,-0.21972 q 0,-1.5503 -1.02539,-2.39258 -1.01318,-0.85449 -2.85644,-0.85449 -1.17188,0 -2.28272,0.28076 -1.11084,0.28076 -2.13623,0.84228 l 0,-2.07519 q 1.23291,-0.47608 2.39258,-0.70801 1.15967,-0.24414 2.2583,-0.24414 2.96631,0 4.43115,1.53809 1.46485,1.53808 1.46485,4.66308 z"
         style="font-size:25px"
         id="path5019" />
      <path
         d="m 243.66959,779.93951 2.2583,0 0,11.21827 6.70166,-5.896 2.86866,0 -7.25098,6.39648 7.55615,7.27539 -2.92969,0 -6.9458,-6.67724 0,6.67724 -2.2583,0 0,-18.99414 z"
         style="font-size:25px"
         id="path5021" />
      <path
         d="m 269.07242,791.53619 0,1.09864 -10.32714,0 q 0.14648,2.31933 1.3916,3.54004 1.25732,1.20849 3.49121,1.20849 1.29394,0 2.50244,-0.31738 1.2207,-0.31738 2.41699,-0.95215 l 0,2.12402 q -1.20849,0.5127 -2.47802,0.78125 -1.26954,0.26856 -2.57569,0.26856 -3.27148,0 -5.18799,-1.9043 -1.90429,-1.9043 -1.90429,-5.15137 0,-3.35693 1.80664,-5.32226 1.81884,-1.97754 4.89502,-1.97754 2.75879,0 4.35791,1.78223 1.61132,1.77002 1.61132,4.82177 z m -2.24609,-0.65918 q -0.0244,-1.84326 -1.0376,-2.94189 -1.00097,-1.09863 -2.66113,-1.09863 -1.87988,0 -3.01514,1.06201 -1.12304,1.06201 -1.29394,2.99072 l 8.00781,-0.0122 z"
         style="font-size:25px"
         id="path5023" />
      <path
         d="m 278.44742,800.20319 q -0.95214,2.4414 -1.85546,3.18603 -0.90332,0.74463 -2.417,0.74463 l -1.79443,0 0,-1.87988 1.31836,0 q 0.92773,0 1.44043,-0.43946 0.51269,-0.43945 1.13525,-2.07519 l 0.40284,-1.02539 -5.52979,-13.45215 2.38037,0 4.27246,10.69336 4.27246,-10.69336 2.38037,0 -6.00586,14.94141 z"
         style="font-size:25px"
         id="path5025" />
      <path
         d="m 291.54557,780.70856 2.07519,0 -6.34765,20.54443 -2.0752,0 6.34766,-20.54443 z"
         style="font-size:25px"
         id="path5027" />
      <path
         d="m 296.00114,785.26178 2.24609,0 0,13.67187 -2.24609,0 0,-13.67187 z m 0,-5.32227 2.24609,0 0,2.84424 -2.24609,0 0,-2.84424 z"
         style="font-size:25px"
         id="path5029" />
      <path
         d="m 301.3234,785.26178 2.38037,0 4.27246,11.47461 4.27246,-11.47461 2.38038,0 -5.12696,13.67187 -3.05176,0 -5.12695,-13.67187 z"
         style="font-size:25px"
         id="path5031" />
      <path
         d="m 335.50309,792.10992 q 0,-2.47802 -1.02539,-3.88183 -1.01319,-1.41602 -2.79541,-1.41602 -1.78223,0 -2.80762,1.41602 -1.01318,1.40381 -1.01318,3.88183 0,2.47803 1.01318,3.89405 1.02539,1.40381 2.80762,1.40381 1.78222,0 2.79541,-1.40381 1.02539,-1.41602 1.02539,-3.89405 z m -7.6416,-4.77294 q 0.70801,-1.22071 1.78222,-1.80665 1.08643,-0.59814 2.58789,-0.59814 2.49024,0 4.04053,1.97754 1.5625,1.97754 1.5625,5.20019 0,3.22266 -1.5625,5.2002 -1.55029,1.97754 -4.04053,1.97754 -1.50146,0 -2.58789,-0.58594 -1.07421,-0.59814 -1.78222,-1.81885 l 0,2.05078 -2.2583,0 0,-18.99414 2.2583,0 0,7.39747 z"
         style="font-size:25px"
         id="path5033" />
      <path
         d="m 341.55778,785.26178 2.24609,0 0,13.67187 -2.24609,0 0,-13.67187 z m 0,-5.32227 2.24609,0 0,2.84424 -2.24609,0 0,-2.84424 z"
         style="font-size:25px"
         id="path5035" />
      <path
         d="m 350.71305,781.37994 0,3.88184 4.62646,0 0,1.74561 -4.62646,0 0,7.42187 q 0,1.67236 0.45166,2.14844 0.46387,0.47607 1.86768,0.47607 l 2.30712,0 0,1.87988 -2.30712,0 q -2.6001,0 -3.58887,-0.96435 -0.98877,-0.97656 -0.98877,-3.54004 l 0,-7.42187 -1.64795,0 0,-1.74561 1.64795,0 0,-3.88184 2.2583,0 z"
         style="font-size:25px"
         id="path5037" />
    </g>
    <path
       style="fill:none;fill-rule:evenodd;stroke:#000000;stroke-width:1px;stroke-linecap:butt;stroke-linejoin:miter;stroke-opacity:1"
       d="m 46.6205,942.7095 32.43124,58.1933 z"
       id="path4774"
       inkscape:connector-curvature="0"
       sodipodi:nodetypes="ccc" />
    <path
       style="fill:none;fill-rule:evenodd;stroke:#000000;stroke-width:1px;stroke-linecap:butt;stroke-linejoin:miter;stroke-opacity:1"
       d="m 46.40469,942.4774 226.46326,61.5018 z"
       id="path4776"
       inkscape:connector-curvature="0"
       sodipodi:nodetypes="ccc" />
    <path
       style="fill:none;fill-rule:evenodd;stroke:#000000;stroke-width:1px;stroke-linecap:butt;stroke-linejoin:miter;stroke-opacity:1"
       d="M 46.2363,942.45023 465.65869,999.8773"
       id="path4778"
       inkscape:connector-curvature="0"
       sodipodi:nodetypes="cc" />
    <g
       style="font-style:normal;font-weight:normal;font-size:25px;line-height:125%;font-family:Sans;letter-spacing:0px;word-spacing:0px;fill:#000000;fill-opacity:1;stroke:none;stroke-width:1px;stroke-linecap:butt;stroke-linejoin:miter;stroke-opacity:1"
       id="text4780">
      <path
         d="m 8.6960831,911.39734 11.5234379,0 0,2.07519 -9.057618,0 0,5.39551 8.6792,0 0,2.0752 -8.6792,0 0,6.604 9.277344,0 0,2.0752 -11.7431639,0 0,-18.2251 z"
         style=""
         id="path5040" />
      <path
         d="m 30.632118,922.74988 q -2.722168,0 -3.771972,0.62256 -1.049805,0.62256 -1.049805,2.12402 0,1.19629 0.78125,1.9043 0.793457,0.6958 2.148437,0.6958 1.867676,0 2.990723,-1.31836 1.135254,-1.33057 1.135254,-3.52783 l 0,-0.50049 -2.233887,0 z m 4.479981,-0.92774 0,7.8003 -2.246094,0 0,-2.0752 q -0.769043,1.24512 -1.916504,1.84326 -1.147461,0.58594 -2.807617,0.58594 -2.09961,0 -3.344727,-1.17187 -1.23291,-1.18409 -1.23291,-3.16163 0,-2.30712 1.538086,-3.479 1.550293,-1.17187 4.614258,-1.17187 l 3.149414,0 0,-0.21973 q 0,-1.55029 -1.025391,-2.39258 -1.013183,-0.85449 -2.856445,-0.85449 -1.171875,0 -2.282715,0.28076 -1.11084,0.28076 -2.13623,0.84229 l 0,-2.0752 q 1.23291,-0.47607 2.392578,-0.70801 1.159668,-0.24414 2.258301,-0.24414 2.966308,0 4.431152,1.53809 1.464844,1.53808 1.464844,4.66308 z"
         style=""
         id="path5042" />
      <path
         d="m 49.589638,916.47546 0,2.09961 q -0.952149,-0.5249 -1.916504,-0.78125 -0.952149,-0.26855 -1.928711,-0.26855 -2.185059,0 -3.393555,1.3916 -1.208496,1.37939 -1.208496,3.88184 0,2.50244 1.208496,3.89404 1.208496,1.37939 3.393555,1.37939 0.976562,0 1.928711,-0.25634 0.964355,-0.26856 1.916504,-0.79346 l 0,2.07519 q -0.939942,0.43946 -1.953125,0.65918 -1.000977,0.21973 -2.136231,0.21973 -3.088379,0 -4.907226,-1.94092 -1.818848,-1.94092 -1.818848,-5.23681 0,-3.34473 1.831055,-5.26123 1.843261,-1.91651 5.041504,-1.91651 1.037597,0 2.026367,0.21973 0.988769,0.20752 1.916504,0.63476 z"
         style=""
         id="path5044" />
      <path
         d="m 64.885048,921.37048 0,8.25196 -2.246094,0 0,-8.17871 q 0,-1.94092 -0.756836,-2.90528 -0.756836,-0.96435 -2.270508,-0.96435 -1.818847,0 -2.868652,1.15966 -1.049805,1.15967 -1.049805,3.16163 l 0,7.72705 -2.2583,0 0,-18.99414 2.2583,0 0,7.44628 q 0.805664,-1.23291 1.89209,-1.84326 1.098633,-0.61035 2.526856,-0.61035 2.355957,0 3.564453,1.46485 1.208496,1.45263 1.208496,4.28466 z"
         style=""
         id="path5046" />
      <path
         d="m 89.042763,922.22498 0,1.09863 -10.327149,0 q 0.146485,2.31933 1.391602,3.54004 1.257324,1.20849 3.491211,1.20849 1.293945,0 2.502441,-0.31738 1.220703,-0.31738 2.416992,-0.95215 l 0,2.12403 q -1.208496,0.51269 -2.478027,0.78125 -1.269531,0.26855 -2.575684,0.26855 -3.271484,0 -5.187988,-1.9043 -1.904297,-1.90429 -1.904297,-5.15136 0,-3.35694 1.806641,-5.32227 1.818848,-1.97754 4.895019,-1.97754 2.75879,0 4.357911,1.78223 1.611328,1.77002 1.611328,4.82178 z m -2.246094,-0.65918 q -0.02441,-1.84327 -1.037598,-2.9419 -1.000976,-1.09863 -2.661132,-1.09863 -1.879883,0 -3.015137,1.06201 -1.123047,1.06201 -1.293945,2.99072 l 8.007812,-0.0122 z"
         style=""
         id="path5048" />
      <path
         d="m 92.729286,910.6283 2.246094,0 0,18.99414 -2.246094,0 0,-18.99414 z"
         style=""
         id="path5050" />
      <path
         d="m 111.35722,922.22498 0,1.09863 -10.32715,0 q 0.14648,2.31933 1.3916,3.54004 1.25732,1.20849 3.49121,1.20849 1.29395,0 2.50244,-0.31738 1.2207,-0.31738 2.41699,-0.95215 l 0,2.12403 q -1.20849,0.51269 -2.47802,0.78125 -1.26954,0.26855 -2.57569,0.26855 -3.27148,0 -5.18799,-1.9043 -1.904293,-1.90429 -1.904293,-5.15136 0,-3.35694 1.806643,-5.32227 1.81885,-1.97754 4.89502,-1.97754 2.75879,0 4.35791,1.78223 1.61133,1.77002 1.61133,4.82178 z m -2.2461,-0.65918 q -0.0244,-1.84327 -1.0376,-2.9419 -1.00097,-1.09863 -2.66113,-1.09863 -1.87988,0 -3.01514,1.06201 -1.12304,1.06201 -1.29394,2.99072 l 8.00781,-0.0122 z"
         style=""
         id="path5052" />
      <path
         d="m 125.68827,918.57507 q 0.84229,-1.51367 2.01416,-2.23388 1.17188,-0.72022 2.75879,-0.72022 2.13623,0 3.2959,1.50147 1.15967,1.48925 1.15967,4.24804 l 0,8.25196 -2.2583,0 0,-8.17871 q 0,-1.96534 -0.69581,-2.91748 -0.6958,-0.95215 -2.12402,-0.95215 -1.7456,0 -2.75879,1.15966 -1.01318,1.15967 -1.01318,3.16163 l 0,7.72705 -2.2583,0 0,-8.17871 q 0,-1.97754 -0.6958,-2.91748 -0.6958,-0.95215 -2.14844,-0.95215 -1.72119,0 -2.73438,1.17187 -1.01318,1.15967 -1.01318,3.14942 l 0,7.72705 -2.2583,0 0,-13.67188 2.2583,0 0,2.12402 q 0.76904,-1.25732 1.84326,-1.85546 1.07422,-0.59815 2.55127,-0.59815 1.48926,0 2.52686,0.75684 1.0498,0.75683 1.55029,2.19726 z"
         style=""
         id="path5054" />
      <path
         d="m 151.10331,922.22498 0,1.09863 -10.32715,0 q 0.14649,2.31933 1.3916,3.54004 1.25733,1.20849 3.49121,1.20849 1.29395,0 2.50245,-0.31738 1.2207,-0.31738 2.41699,-0.95215 l 0,2.12403 q -1.2085,0.51269 -2.47803,0.78125 -1.26953,0.26855 -2.57568,0.26855 -3.27149,0 -5.18799,-1.9043 -1.9043,-1.90429 -1.9043,-5.15136 0,-3.35694 1.80664,-5.32227 1.81885,-1.97754 4.89502,-1.97754 2.75879,0 4.35791,1.78223 1.61133,1.77002 1.61133,4.82178 z m -2.24609,-0.65918 q -0.0244,-1.84327 -1.0376,-2.9419 -1.00098,-1.09863 -2.66113,-1.09863 -1.87989,0 -3.01514,1.06201 -1.12305,1.06201 -1.29395,2.99072 l 8.00782,-0.0122 z"
         style=""
         id="path5056" />
      <path
         d="m 166.15458,921.37048 0,8.25196 -2.24609,0 0,-8.17871 q 0,-1.94092 -0.75684,-2.90528 -0.75684,-0.96435 -2.27051,-0.96435 -1.81885,0 -2.86865,1.15966 -1.04981,1.15967 -1.04981,3.16163 l 0,7.72705 -2.2583,0 0,-13.67188 2.2583,0 0,2.12402 q 0.80567,-1.23291 1.89209,-1.84326 1.09864,-0.61035 2.52686,-0.61035 2.35596,0 3.56445,1.46485 1.2085,1.45263 1.2085,4.28466 z"
         style=""
         id="path5058" />
      <path
         d="m 172.88065,912.06873 0,3.88183 4.62647,0 0,1.74561 -4.62647,0 0,7.42187 q 0,1.67237 0.45166,2.14844 0.46387,0.47607 1.86768,0.47607 l 2.30713,0 0,1.87989 -2.30713,0 q -2.6001,0 -3.58887,-0.96436 -0.98877,-0.97656 -0.98877,-3.54004 l 0,-7.42187 -1.64795,0 0,-1.74561 1.64795,0 0,-3.88183 2.2583,0 z"
         style=""
         id="path5060" />
      <path
         d="m 198.27128,916.47546 0,2.09961 q -0.95215,-0.5249 -1.91651,-0.78125 -0.95214,-0.26855 -1.92871,-0.26855 -2.18506,0 -3.39355,1.3916 -1.2085,1.37939 -1.2085,3.88184 0,2.50244 1.2085,3.89404 1.20849,1.37939 3.39355,1.37939 0.97657,0 1.92871,-0.25634 0.96436,-0.26856 1.91651,-0.79346 l 0,2.07519 q -0.93994,0.43946 -1.95313,0.65918 -1.00097,0.21973 -2.13623,0.21973 -3.08838,0 -4.90722,-1.94092 -1.81885,-1.94092 -1.81885,-5.23681 0,-3.34473 1.83105,-5.26123 1.84327,-1.91651 5.04151,-1.91651 1.03759,0 2.02636,0.21973 0.98877,0.20752 1.91651,0.63476 z"
         style=""
         id="path5062" />
      <path
         d="m 207.49979,917.52527 q -1.80664,0 -2.85644,1.41601 -1.04981,1.40381 -1.04981,3.85743 0,2.45361 1.0376,3.86962 1.04981,1.40381 2.86865,1.40381 1.79444,0 2.84424,-1.41601 1.04981,-1.41602 1.04981,-3.85742 0,-2.4292 -1.04981,-3.84522 -1.0498,-1.42822 -2.84424,-1.42822 z m 0,-1.9043 q 2.92969,0 4.60205,1.9043 1.67237,1.9043 1.67237,5.27344 0,3.35693 -1.67237,5.27343 -1.67236,1.9043 -4.60205,1.9043 -2.94189,0 -4.61425,-1.9043 -1.66016,-1.9165 -1.66016,-5.27343 0,-3.36914 1.66016,-5.27344 1.67236,-1.9043 4.61425,-1.9043 z"
         style=""
         id="path5064" />
      <path
         d="m 228.84989,921.37048 0,8.25196 -2.24609,0 0,-8.17871 q 0,-1.94092 -0.75684,-2.90528 -0.75683,-0.96435 -2.27051,-0.96435 -1.81884,0 -2.86865,1.15966 -1.0498,1.15967 -1.0498,3.16163 l 0,7.72705 -2.2583,0 0,-13.67188 2.2583,0 0,2.12402 q 0.80566,-1.23291 1.89209,-1.84326 1.09863,-0.61035 2.52685,-0.61035 2.35596,0 3.56446,1.46485 1.20849,1.45263 1.20849,4.28466 z"
         style=""
         id="path5066" />
      <path
         d="m 235.57597,912.06873 0,3.88183 4.62646,0 0,1.74561 -4.62646,0 0,7.42187 q 0,1.67237 0.45166,2.14844 0.46386,0.47607 1.86767,0.47607 l 2.30713,0 0,1.87989 -2.30713,0 q -2.6001,0 -3.58887,-0.96436 -0.98876,-0.97656 -0.98876,-3.54004 l 0,-7.42187 -1.64795,0 0,-1.74561 1.64795,0 0,-3.88183 2.2583,0 z"
         style=""
         id="path5068" />
      <path
         d="m 249.38212,922.74988 q -2.72217,0 -3.77197,0.62256 -1.04981,0.62256 -1.04981,2.12402 0,1.19629 0.78125,1.9043 0.79346,0.6958 2.14844,0.6958 1.86767,0 2.99072,-1.31836 1.13525,-1.33057 1.13525,-3.52783 l 0,-0.50049 -2.23388,0 z m 4.47998,-0.92774 0,7.8003 -2.2461,0 0,-2.0752 q -0.76904,1.24512 -1.9165,1.84326 -1.14746,0.58594 -2.80762,0.58594 -2.09961,0 -3.34472,-1.17187 -1.23291,-1.18409 -1.23291,-3.16163 0,-2.30712 1.53808,-3.479 1.5503,-1.17187 4.61426,-1.17187 l 3.14941,0 0,-0.21973 q 0,-1.55029 -1.02539,-2.39258 -1.01318,-0.85449 -2.85644,-0.85449 -1.17188,0 -2.28272,0.28076 -1.11084,0.28076 -2.13623,0.84229 l 0,-2.0752 q 1.23291,-0.47607 2.39258,-0.70801 1.15967,-0.24414 2.2583,-0.24414 2.96631,0 4.43115,1.53809 1.46485,1.53808 1.46485,4.66308 z"
         style=""
         id="path5070" />
      <path
         d="m 258.50077,915.95056 2.24609,0 0,13.67188 -2.24609,0 0,-13.67188 z m 0,-5.32226 2.24609,0 0,2.84423 -2.24609,0 0,-2.84423 z"
         style=""
         id="path5072" />
      <path
         d="m 276.79911,921.37048 0,8.25196 -2.24609,0 0,-8.17871 q 0,-1.94092 -0.75684,-2.90528 -0.75684,-0.96435 -2.27051,-0.96435 -1.81884,0 -2.86865,1.15966 -1.0498,1.15967 -1.0498,3.16163 l 0,7.72705 -2.2583,0 0,-13.67188 2.2583,0 0,2.12402 q 0.80566,-1.23291 1.89209,-1.84326 1.09863,-0.61035 2.52685,-0.61035 2.35596,0 3.56445,1.46485 1.2085,1.45263 1.2085,4.28466 z"
         style=""
         id="path5074" />
      <path
         d="m 290.01933,916.35339 0,2.12403 q -0.95215,-0.48828 -1.97754,-0.73242 -1.02539,-0.24415 -2.12403,-0.24415 -1.67236,0 -2.51465,0.5127 -0.83007,0.5127 -0.83007,1.53809 0,0.78125 0.59814,1.23291 0.59815,0.43945 2.40479,0.84228 l 0.76904,0.1709 q 2.39258,0.51269 3.39355,1.45264 1.01319,0.92773 1.01319,2.60009 0,1.9043 -1.51367,3.01514 -1.50147,1.11084 -4.13819,1.11084 -1.09863,0 -2.29492,-0.21973 -1.18408,-0.20752 -2.50244,-0.63476 l 0,-2.31934 q 1.24512,0.64697 2.45361,0.97656 1.2085,0.31739 2.39258,0.31739 1.58691,0 2.44141,-0.53711 0.85449,-0.54932 0.85449,-1.53809 0,-0.91553 -0.62256,-1.40381 -0.61035,-0.48828 -2.69775,-0.93994 l -0.78125,-0.1831 q -2.08741,-0.43946 -3.01514,-1.34278 -0.92774,-0.91552 -0.92774,-2.50244 0,-1.92871 1.36719,-2.97851 1.36719,-1.04981 3.88184,-1.04981 1.24512,0 2.34375,0.18311 1.09863,0.1831 2.02637,0.54931 z"
         style=""
         id="path5076" />
      <path
         d="m 308.19559,919.52722 q -1.66015,0 -2.63671,1.13526 -0.96436,1.13525 -0.96436,3.11279 0,1.96533 0.96436,3.11279 0.97656,1.13526 2.63671,1.13526 1.66016,0 2.62452,-1.13526 0.97656,-1.14746 0.97656,-3.11279 0,-1.97754 -0.97656,-3.11279 -0.96436,-1.13526 -2.62452,-1.13526 z m 4.89502,-7.72705 0,2.24609 q -0.92773,-0.43945 -1.87988,-0.67138 -0.93994,-0.23194 -1.86767,-0.23194 -2.44141,0 -3.73536,1.64795 -1.28173,1.64795 -1.46484,4.98047 0.72022,-1.06201 1.80664,-1.62353 1.08643,-0.57373 2.39258,-0.57373 2.74658,0 4.3335,1.67236 1.59912,1.66016 1.59912,4.52881 0,2.80762 -1.66016,4.50439 -1.66016,1.69678 -4.41895,1.69678 -3.16162,0 -4.83398,-2.41699 -1.67236,-2.4292 -1.67236,-7.03125 0,-4.32129 2.05078,-6.88477 2.05078,-2.57568 5.50537,-2.57568 0.92773,0 1.86768,0.1831 0.95214,0.18311 1.97753,0.54932 z"
         style=""
         id="path5078" />
      <path
         d="m 325.30985,913.54578 -6.22558,9.729 6.22558,0 0,-9.729 z m -0.64697,-2.14844 3.10059,0 0,11.87744 2.60009,0 0,2.05078 -2.60009,0 0,4.29688 -2.45362,0 0,-4.29688 -8.22754,0 0,-2.38037 7.58057,-11.54785 z"
         style=""
         id="path5080" />
      <path
         d="m 342.00907,910.6283 2.2583,0 0,11.21826 6.70166,-5.896 2.86865,0 -7.25097,6.39649 7.55615,7.27539 -2.92969,0 -6.9458,-6.67725 0,6.67725 -2.2583,0 0,-18.99414 z"
         style=""
         id="path5082" />
      <path
         d="m 367.4119,922.22498 0,1.09863 -10.32715,0 q 0.14649,2.31933 1.39161,3.54004 1.25732,1.20849 3.49121,1.20849 1.29394,0 2.50244,-0.31738 1.2207,-0.31738 2.41699,-0.95215 l 0,2.12403 q -1.2085,0.51269 -2.47803,0.78125 -1.26953,0.26855 -2.57568,0.26855 -3.27148,0 -5.18799,-1.9043 -1.9043,-1.90429 -1.9043,-5.15136 0,-3.35694 1.80665,-5.32227 1.81884,-1.97754 4.89502,-1.97754 2.75878,0 4.35791,1.78223 1.61132,1.77002 1.61132,4.82178 z m -2.24609,-0.65918 q -0.0244,-1.84327 -1.0376,-2.9419 -1.00097,-1.09863 -2.66113,-1.09863 -1.87988,0 -3.01514,1.06201 -1.12304,1.06201 -1.29394,2.99072 l 8.00781,-0.0122 z"
         style=""
         id="path5084" />
      <path
         d="m 376.7869,930.89197 q -0.95215,2.4414 -1.85547,3.18603 -0.90332,0.74463 -2.41699,0.74463 l -1.79443,0 0,-1.87988 1.31836,0 q 0.92773,0 1.44043,-0.43945 0.51269,-0.43946 1.13525,-2.0752 l 0.40283,-1.02539 -5.52978,-13.45215 2.38037,0 4.27246,10.69336 4.27246,-10.69336 2.38037,0 -6.00586,14.94141 z"
         style=""
         id="path5086" />
      <path
         d="m 389.88505,911.39734 2.07519,0 -6.34765,20.54443 -2.0752,0 6.34766,-20.54443 z"
         style=""
         id="path5088" />
      <path
         d="m 394.34061,915.95056 2.2461,0 0,13.67188 -2.2461,0 0,-13.67188 z m 0,-5.32226 2.2461,0 0,2.84423 -2.2461,0 0,-2.84423 z"
         style=""
         id="path5090" />
      <path
         d="m 399.66288,915.95056 2.38037,0 4.27246,11.47461 4.27246,-11.47461 2.38037,0 -5.12695,13.67188 -3.05176,0 -5.12695,-13.67188 z"
         style=""
         id="path5092" />
      <path
         d="m 433.84257,922.79871 q 0,-2.47803 -1.02539,-3.88184 -1.01319,-1.41602 -2.79541,-1.41602 -1.78223,0 -2.80762,1.41602 -1.01318,1.40381 -1.01318,3.88184 0,2.47802 1.01318,3.89404 1.02539,1.40381 2.80762,1.40381 1.78222,0 2.79541,-1.40381 1.02539,-1.41602 1.02539,-3.89404 z m -7.6416,-4.77295 q 0.708,-1.22071 1.78222,-1.80664 1.08643,-0.59815 2.58789,-0.59815 2.49024,0 4.04053,1.97754 1.5625,1.97754 1.5625,5.2002 0,3.22265 -1.5625,5.20019 -1.55029,1.97754 -4.04053,1.97754 -1.50146,0 -2.58789,-0.58594 -1.07422,-0.59814 -1.78222,-1.81884 l 0,2.05078 -2.2583,0 0,-18.99414 2.2583,0 0,7.39746 z"
         style=""
         id="path5094" />
      <path
         d="m 439.89725,915.95056 2.2461,0 0,13.67188 -2.2461,0 0,-13.67188 z m 0,-5.32226 2.2461,0 0,2.84423 -2.2461,0 0,-2.84423 z"
         style=""
         id="path5096" />
      <path
         d="m 449.05253,912.06873 0,3.88183 4.62646,0 0,1.74561 -4.62646,0 0,7.42187 q 0,1.67237 0.45166,2.14844 0.46387,0.47607 1.86767,0.47607 l 2.30713,0 0,1.87989 -2.30713,0 q -2.60009,0 -3.58886,-0.96436 -0.98877,-0.97656 -0.98877,-3.54004 l 0,-7.42187 -1.64795,0 0,-1.74561 1.64795,0 0,-3.88183 2.2583,0 z"
         style=""
         id="path5098" />
      <path
         d="m 465.36112,916.35339 0,2.12403 q -0.95215,-0.48828 -1.97754,-0.73242 -1.02539,-0.24415 -2.12402,-0.24415 -1.67236,0 -2.51465,0.5127 -0.83008,0.5127 -0.83008,1.53809 0,0.78125 0.59815,1.23291 0.59814,0.43945 2.40478,0.84228 l 0.76905,0.1709 q 2.39257,0.51269 3.39355,1.45264 1.01318,0.92773 1.01318,2.60009 0,1.9043 -1.51367,3.01514 -1.50146,1.11084 -4.13818,1.11084 -1.09863,0 -2.29492,-0.21973 -1.18409,-0.20752 -2.50244,-0.63476 l 0,-2.31934 q 1.24511,0.64697 2.45361,0.97656 1.20849,0.31739 2.39258,0.31739 1.58691,0 2.4414,-0.53711 0.8545,-0.54932 0.8545,-1.53809 0,-0.91553 -0.62256,-1.40381 -0.61036,-0.48828 -2.69776,-0.93994 l -0.78125,-0.1831 q -2.0874,-0.43946 -3.01513,-1.34278 -0.92774,-0.91552 -0.92774,-2.50244 0,-1.92871 1.36719,-2.97851 1.36719,-1.04981 3.88183,-1.04981 1.24512,0 2.34375,0.18311 1.09864,0.1831 2.02637,0.54931 z"
         style=""
         id="path5100" />
    </g>
  </g>
</svg>
