<?xml version="1.0" encoding="UTF-8" standalone="no"?>
<svg
   xmlns:dc="http://purl.org/dc/elements/1.1/"
   xmlns:cc="http://creativecommons.org/ns#"
   xmlns:rdf="http://www.w3.org/1999/02/22-rdf-syntax-ns#"
   xmlns:svg="http://www.w3.org/2000/svg"
   xmlns="http://www.w3.org/2000/svg"
   xmlns:sodipodi="http://sodipodi.sourceforge.net/DTD/sodipodi-0.dtd"
   xmlns:inkscape="http://www.inkscape.org/namespaces/inkscape"
   width="233mm"
   height="90mm"
   viewBox="0 0 23300 9000"
   version="1.1"
   stroke-width="28.222"
   stroke-linejoin="round"
   xml:space="preserve"
   id="svg2"
   inkscape:version="0.91 r13725"
   sodipodi:docname="grain_chart.svg"><metadata
     id="metadata542"><rdf:RDF><cc:Work
         rdf:about=""><dc:format>image/svg+xml</dc:format><dc:type
           rdf:resource="http://purl.org/dc/dcmitype/StillImage" /><dc:title></dc:title></cc:Work></rdf:RDF></metadata><defs
     id="defs540" /><sodipodi:namedview
     pagecolor="#ffffff"
     bordercolor="#666666"
     borderopacity="1"
     objecttolerance="10"
     gridtolerance="10"
     guidetolerance="10"
     inkscape:pageopacity="0"
     inkscape:pageshadow="2"
     inkscape:window-width="1366"
     inkscape:window-height="699"
     id="namedview538"
     showgrid="false"
     inkscape:zoom="1.2738933"
     inkscape:cx="461.74614"
     inkscape:cy="159.38484"
     inkscape:window-x="-9"
     inkscape:window-y="-9"
     inkscape:window-maximized="1"
     inkscape:current-layer="svg2" /><path
     d="m 10482.115,7195 -9005.0035,0 0,-5692 18009.0035,0 0,5692 -9004,0 z"
     id="path6"
     inkscape:connector-curvature="0"
     style="fill:none;stroke:#b3b3b3;stroke-linejoin:round" /><path
     d="m 19486.115,7194 -18009.0035,0"
     id="path8"
     inkscape:connector-curvature="0"
     style="fill:none;stroke:#b3b3b3;stroke-linejoin:round" /><path
     d="m 19486.115,6245 -18009.0035,0"
     id="path10"
     inkscape:connector-curvature="0"
     style="fill:none;stroke:#b3b3b3;stroke-linejoin:round" /><path
     d="m 19486.115,5296 -18009.0035,0"
     id="path12"
     inkscape:connector-curvature="0"
     style="fill:none;stroke:#b3b3b3;stroke-linejoin:round" /><path
     d="m 19486.115,4348 -18009.0035,0"
     id="path14"
     inkscape:connector-curvature="0"
     style="fill:none;stroke:#b3b3b3;stroke-linejoin:round" /><path
     d="m 19486.115,3399 -18009.0035,0"
     id="path16"
     inkscape:connector-curvature="0"
     style="fill:none;stroke:#b3b3b3;stroke-linejoin:round" /><path
     d="m 19486.115,2450 -18009.0035,0"
     id="path18"
     inkscape:connector-curvature="0"
     style="fill:none;stroke:#b3b3b3;stroke-linejoin:round" /><path
     d="m 19486.115,1502 -18009.0035,0"
     id="path20"
     inkscape:connector-curvature="0"
     style="fill:none;stroke:#b3b3b3;stroke-linejoin:round" /><path
     d="m 2169.1115,7344 0,-150"
     id="path26"
     inkscape:connector-curvature="0"
     style="fill:none;stroke:#b3b3b3;stroke-linejoin:round" /><path
     d="m 2169.1115,7344 0,-150"
     id="path28"
     inkscape:connector-curvature="0"
     style="fill:none;stroke:#b3b3b3;stroke-linejoin:round" /><path
     d="m 2862.1115,7344 0,-150"
     id="path30"
     inkscape:connector-curvature="0"
     style="fill:none;stroke:#b3b3b3;stroke-linejoin:round" /><path
     d="m 2862.1115,7344 0,-150"
     id="path32"
     inkscape:connector-curvature="0"
     style="fill:none;stroke:#b3b3b3;stroke-linejoin:round" /><path
     d="m 3555.1115,7344 0,-150"
     id="path34"
     inkscape:connector-curvature="0"
     style="fill:none;stroke:#b3b3b3;stroke-linejoin:round" /><path
     d="m 3555.1115,7344 0,-150"
     id="path36"
     inkscape:connector-curvature="0"
     style="fill:none;stroke:#b3b3b3;stroke-linejoin:round" /><path
     d="m 4247.1115,7344 0,-150"
     id="path38"
     inkscape:connector-curvature="0"
     style="fill:none;stroke:#b3b3b3;stroke-linejoin:round" /><path
     d="m 4247.1115,7344 0,-150"
     id="path40"
     inkscape:connector-curvature="0"
     style="fill:none;stroke:#b3b3b3;stroke-linejoin:round" /><path
     d="m 4940.1115,7344 0,-150"
     id="path42"
     inkscape:connector-curvature="0"
     style="fill:none;stroke:#b3b3b3;stroke-linejoin:round" /><path
     d="m 4940.1115,7344 0,-150"
     id="path44"
     inkscape:connector-curvature="0"
     style="fill:none;stroke:#b3b3b3;stroke-linejoin:round" /><path
     d="m 5633.1115,7344 0,-150"
     id="path46"
     inkscape:connector-curvature="0"
     style="fill:none;stroke:#b3b3b3;stroke-linejoin:round" /><path
     d="m 5633.1115,7344 0,-150"
     id="path48"
     inkscape:connector-curvature="0"
     style="fill:none;stroke:#b3b3b3;stroke-linejoin:round" /><path
     d="m 6325.1115,7344 0,-150"
     id="path50"
     inkscape:connector-curvature="0"
     style="fill:none;stroke:#b3b3b3;stroke-linejoin:round" /><path
     d="m 6325.1115,7344 0,-150"
     id="path52"
     inkscape:connector-curvature="0"
     style="fill:none;stroke:#b3b3b3;stroke-linejoin:round" /><path
     d="m 7018.1115,7344 0,-150"
     id="path54"
     inkscape:connector-curvature="0"
     style="fill:none;stroke:#b3b3b3;stroke-linejoin:round" /><path
     d="m 7018.1115,7344 0,-150"
     id="path56"
     inkscape:connector-curvature="0"
     style="fill:none;stroke:#b3b3b3;stroke-linejoin:round" /><path
     d="m 7711.1115,7344 0,-150"
     id="path58"
     inkscape:connector-curvature="0"
     style="fill:none;stroke:#b3b3b3;stroke-linejoin:round" /><path
     d="m 7711.1115,7344 0,-150"
     id="path60"
     inkscape:connector-curvature="0"
     style="fill:none;stroke:#b3b3b3;stroke-linejoin:round" /><path
     d="m 8403.1115,7344 0,-150"
     id="path62"
     inkscape:connector-curvature="0"
     style="fill:none;stroke:#b3b3b3;stroke-linejoin:round" /><path
     d="m 8403.1115,7344 0,-150"
     id="path64"
     inkscape:connector-curvature="0"
     style="fill:none;stroke:#b3b3b3;stroke-linejoin:round" /><path
     d="m 9096.1115,7344 0,-150"
     id="path66"
     inkscape:connector-curvature="0"
     style="fill:none;stroke:#b3b3b3;stroke-linejoin:round" /><path
     d="m 9096.1115,7344 0,-150"
     id="path68"
     inkscape:connector-curvature="0"
     style="fill:none;stroke:#b3b3b3;stroke-linejoin:round" /><path
     d="m 9789.1143,7344 0,-150"
     id="path70"
     inkscape:connector-curvature="0"
     style="fill:none;stroke:#b3b3b3;stroke-linejoin:round" /><path
     d="m 9789.1143,7344 0,-150"
     id="path72"
     inkscape:connector-curvature="0"
     style="fill:none;stroke:#b3b3b3;stroke-linejoin:round" /><path
     d="m 10482.115,7344 0,-150"
     id="path74"
     inkscape:connector-curvature="0"
     style="fill:none;stroke:#b3b3b3;stroke-linejoin:round" /><path
     d="m 10482.115,7344 0,-150"
     id="path76"
     inkscape:connector-curvature="0"
     style="fill:none;stroke:#b3b3b3;stroke-linejoin:round" /><path
     d="m 11173.115,7344 0,-150"
     id="path78"
     inkscape:connector-curvature="0"
     style="fill:none;stroke:#b3b3b3;stroke-linejoin:round" /><path
     d="m 11173.115,7344 0,-150"
     id="path80"
     inkscape:connector-curvature="0"
     style="fill:none;stroke:#b3b3b3;stroke-linejoin:round" /><path
     d="m 11866.115,7344 0,-150"
     id="path82"
     inkscape:connector-curvature="0"
     style="fill:none;stroke:#b3b3b3;stroke-linejoin:round" /><path
     d="m 11866.115,7344 0,-150"
     id="path84"
     inkscape:connector-curvature="0"
     style="fill:none;stroke:#b3b3b3;stroke-linejoin:round" /><path
     d="m 12559.115,7344 0,-150"
     id="path86"
     inkscape:connector-curvature="0"
     style="fill:none;stroke:#b3b3b3;stroke-linejoin:round" /><path
     d="m 12559.115,7344 0,-150"
     id="path88"
     inkscape:connector-curvature="0"
     style="fill:none;stroke:#b3b3b3;stroke-linejoin:round" /><path
     d="m 13251.115,7344 0,-150"
     id="path90"
     inkscape:connector-curvature="0"
     style="fill:none;stroke:#b3b3b3;stroke-linejoin:round" /><path
     d="m 13251.115,7344 0,-150"
     id="path92"
     inkscape:connector-curvature="0"
     style="fill:none;stroke:#b3b3b3;stroke-linejoin:round" /><path
     d="m 13944.115,7344 0,-150"
     id="path94"
     inkscape:connector-curvature="0"
     style="fill:none;stroke:#b3b3b3;stroke-linejoin:round" /><path
     d="m 13944.115,7344 0,-150"
     id="path96"
     inkscape:connector-curvature="0"
     style="fill:none;stroke:#b3b3b3;stroke-linejoin:round" /><path
     d="m 14637.115,7344 0,-150"
     id="path98"
     inkscape:connector-curvature="0"
     style="fill:none;stroke:#b3b3b3;stroke-linejoin:round" /><path
     d="m 14637.115,7344 0,-150"
     id="path100"
     inkscape:connector-curvature="0"
     style="fill:none;stroke:#b3b3b3;stroke-linejoin:round" /><path
     d="m 15329.115,7344 0,-150"
     id="path102"
     inkscape:connector-curvature="0"
     style="fill:none;stroke:#b3b3b3;stroke-linejoin:round" /><path
     d="m 15329.115,7344 0,-150"
     id="path104"
     inkscape:connector-curvature="0"
     style="fill:none;stroke:#b3b3b3;stroke-linejoin:round" /><path
     d="m 16022.115,7344 0,-150"
     id="path106"
     inkscape:connector-curvature="0"
     style="fill:none;stroke:#b3b3b3;stroke-linejoin:round" /><path
     d="m 16022.115,7344 0,-150"
     id="path108"
     inkscape:connector-curvature="0"
     style="fill:none;stroke:#b3b3b3;stroke-linejoin:round" /><path
     d="m 16715.115,7344 0,-150"
     id="path110"
     inkscape:connector-curvature="0"
     style="fill:none;stroke:#b3b3b3;stroke-linejoin:round" /><path
     d="m 16715.115,7344 0,-150"
     id="path112"
     inkscape:connector-curvature="0"
     style="fill:none;stroke:#b3b3b3;stroke-linejoin:round" /><path
     d="m 17407.115,7344 0,-150"
     id="path114"
     inkscape:connector-curvature="0"
     style="fill:none;stroke:#b3b3b3;stroke-linejoin:round" /><path
     d="m 17407.115,7344 0,-150"
     id="path116"
     inkscape:connector-curvature="0"
     style="fill:none;stroke:#b3b3b3;stroke-linejoin:round" /><path
     d="m 18100.115,7344 0,-150"
     id="path118"
     inkscape:connector-curvature="0"
     style="fill:none;stroke:#b3b3b3;stroke-linejoin:round" /><path
     d="m 18100.115,7344 0,-150"
     id="path120"
     inkscape:connector-curvature="0"
     style="fill:none;stroke:#b3b3b3;stroke-linejoin:round" /><path
     d="m 18793.115,7344 0,-150"
     id="path122"
     inkscape:connector-curvature="0"
     style="fill:none;stroke:#b3b3b3;stroke-linejoin:round" /><path
     d="m 18793.115,7344 0,-150"
     id="path124"
     inkscape:connector-curvature="0"
     style="fill:none;stroke:#b3b3b3;stroke-linejoin:round" /><path
     d="m 19486.115,7344 0,-150"
     id="path126"
     inkscape:connector-curvature="0"
     style="fill:none;stroke:#b3b3b3;stroke-linejoin:round" /><path
     d="m 19486.115,7344 0,-150"
     id="path128"
     inkscape:connector-curvature="0"
     style="fill:none;stroke:#b3b3b3;stroke-linejoin:round" /><path
     d="m 1477.1115,7194 18009.0035,0"
     id="path130"
     inkscape:connector-curvature="0"
     style="fill:none;stroke:#b3b3b3;stroke-linejoin:round" /><path
     d="m 9212.1115,7194 230.0004,0 0,-190 -230.0004,0 0,190 z"
     id="path162"
     inkscape:connector-curvature="0"
     style="fill:#004586;stroke:none" /><path
     d="m 8519.1115,7194 231,0 0,-1139 -231,0 0,1139 z"
     id="path164"
     inkscape:connector-curvature="0"
     style="fill:#004586;stroke:none" /><path
     d="m 7826.1115,7194 231,0 0,-2278 -231,0 0,2278 z"
     id="path166"
     inkscape:connector-curvature="0"
     style="fill:#004586;stroke:none" /><path
     d="m 7133.1115,7194 231,0 0,-1898 -231,0 0,1898 z"
     id="path168"
     inkscape:connector-curvature="0"
     style="fill:#004586;stroke:none" /><path
     d="m 6441.1115,7194 231,0 0,-1898 -231,0 0,1898 z"
     id="path170"
     inkscape:connector-curvature="0"
     style="fill:#004586;stroke:none" /><path
     d="m 5748.1115,7194 231,0 0,-1519 -231,0 0,1519 z"
     id="path172"
     inkscape:connector-curvature="0"
     style="fill:#004586;stroke:none" /><path
     d="m 5055.1115,7194 231,0 0,-1139 -231,0 0,1139 z"
     id="path174"
     inkscape:connector-curvature="0"
     style="fill:#004586;stroke:none" /><path
     d="m 4363.1115,7194 231,0 0,-760 -231,0 0,760 z"
     id="path176"
     inkscape:connector-curvature="0"
     style="fill:#004586;stroke:none" /><path
     d="m 3670.1115,7194 231,0 0,-380 -231,0 0,380 z"
     id="path178"
     inkscape:connector-curvature="0"
     style="fill:#004586;stroke:none" /><path
     d="m 2977.1115,7194 231,0 0,-380 -231,0 0,380 z"
     id="path180"
     inkscape:connector-curvature="0"
     style="fill:#004586;stroke:none" /><path
     d="m 2285.1115,7194 231,0 0,-380 -231,0 0,380 z"
     id="path182"
     inkscape:connector-curvature="0"
     style="fill:#004586;stroke:none" /><path
     d="m 1592.1115,7194 231,0 0,-380 -231,0 0,380 z"
     id="path184"
     inkscape:connector-curvature="0"
     style="fill:#004586;stroke:none" /><path
     d="m 19139.115,7194 231,0 0,-3795 -231,0 0,3795 z"
     id="path186"
     inkscape:connector-curvature="0"
     style="fill:#ff420e;stroke:none" /><path
     d="m 18446.115,7194 231,0 0,-3795 -231,0 0,3795 z"
     id="path188"
     inkscape:connector-curvature="0"
     style="fill:#ff420e;stroke:none" /><path
     d="m 17754.115,7194 231,0 0,-4174 -231,0 0,4174 z"
     id="path190"
     inkscape:connector-curvature="0"
     style="fill:#ff420e;stroke:none" /><path
     d="m 17061.115,7194 231,0 0,-3985 -231,0 0,3985 z"
     id="path192"
     inkscape:connector-curvature="0"
     style="fill:#ff420e;stroke:none" /><path
     d="m 16368.115,7194 231,0 0,-3795 -231,0 0,3795 z"
     id="path194"
     inkscape:connector-curvature="0"
     style="fill:#ff420e;stroke:none" /><path
     d="m 15676.115,7194 231,0 0,-4174 -231,0 0,4174 z"
     id="path196"
     inkscape:connector-curvature="0"
     style="fill:#ff420e;stroke:none" /><path
     d="m 14983.115,7194 231,0 0,-4174 -231,0 0,4174 z"
     id="path198"
     inkscape:connector-curvature="0"
     style="fill:#ff420e;stroke:none" /><path
     d="m 14290.115,7194 231,0 0,-4554 -231,0 0,4554 z"
     id="path200"
     inkscape:connector-curvature="0"
     style="fill:#ff420e;stroke:none" /><path
     d="m 13598.115,7194 231,0 0,-3795 -231,0 0,3795 z"
     id="path202"
     inkscape:connector-curvature="0"
     style="fill:#ff420e;stroke:none" /><path
     d="m 12905.115,7194 231,0 0,-3795 -231,0 0,3795 z"
     id="path204"
     inkscape:connector-curvature="0"
     style="fill:#ff420e;stroke:none" /><path
     d="m 12212.115,7194 231,0 0,-3985 -231,0 0,3985 z"
     id="path206"
     inkscape:connector-curvature="0"
     style="fill:#ff420e;stroke:none" /><path
     d="m 11520.115,7194 230,0 0,-3795 -230,0 0,3795 z"
     id="path208"
     inkscape:connector-curvature="0"
     style="fill:#ff420e;stroke:none" /><path
     d="m 10828.115,7194 230,0 0,-3795 -230,0 0,3795 z"
     id="path210"
     inkscape:connector-curvature="0"
     style="fill:#ff420e;stroke:none" /><path
     d="m 10135.115,7194 231,0 0,-3795 -231,0 0,3795 z"
     id="path212"
     inkscape:connector-curvature="0"
     style="fill:#ff420e;stroke:none" /><path
     d="m 9442.1119,7194 231.0016,0 0,-4174 -231.0016,0 0,4174 z"
     id="path214"
     inkscape:connector-curvature="0"
     style="fill:#ff420e;stroke:none" /><path
     d="m 8750.1115,7194 231,0 0,-3795 -231,0 0,3795 z"
     id="path216"
     inkscape:connector-curvature="0"
     style="fill:#ff420e;stroke:none" /><path
     d="m 8057.1115,7194 231,0 0,-3795 -231,0 0,3795 z"
     id="path218"
     inkscape:connector-curvature="0"
     style="fill:#ff420e;stroke:none" /><path
     d="m 7364.1115,7194 231,0 0,-2467 -231,0 0,2467 z"
     id="path220"
     inkscape:connector-curvature="0"
     style="fill:#ff420e;stroke:none" /><path
     d="m 6672.1115,7194 231,0 0,-3036 -231,0 0,3036 z"
     id="path222"
     inkscape:connector-curvature="0"
     style="fill:#ff420e;stroke:none" /><path
     d="m 5979.1115,7194 231,0 0,-570 -231,0 0,570 z"
     id="path224"
     inkscape:connector-curvature="0"
     style="fill:#ff420e;stroke:none" /><path
     d="m 5286.1115,7194 231,0 0,-949 -231,0 0,949 z"
     id="path226"
     inkscape:connector-curvature="0"
     style="fill:#ff420e;stroke:none" /><path
     d="m 4594.1115,7194 231,0 0,-380 -231,0 0,380 z"
     id="path228"
     inkscape:connector-curvature="0"
     style="fill:#ff420e;stroke:none" /><path
     d="m 3901.1115,7194 231,0 0,-380 -231,0 0,380 z"
     id="path230"
     inkscape:connector-curvature="0"
     style="fill:#ff420e;stroke:none" /><path
     d="m 3208.1115,7194 231,0 0,-380 -231,0 0,380 z"
     id="path232"
     inkscape:connector-curvature="0"
     style="fill:#ff420e;stroke:none" /><path
     d="m 2516.1115,7194 230,0 0,-380 -230,0 0,380 z"
     id="path234"
     inkscape:connector-curvature="0"
     style="fill:#ff420e;stroke:none" /><path
     d="m 1823.1115,7194 231,0 0,-380 -231,0 0,380 z"
     id="path236"
     inkscape:connector-curvature="0"
     style="fill:#ff420e;stroke:none" /><text
     xml:space="preserve"
     style="font-style:normal;font-weight:normal;font-size:1128.88879395px;line-height:125%;font-family:Sans;letter-spacing:0px;word-spacing:0px;fill:#000000;fill-opacity:1;stroke:none;stroke-width:1px;stroke-linecap:butt;stroke-linejoin:miter;stroke-opacity:1"
     x="2126.8132"
     y="1002.2955"
     id="text3870"
     sodipodi:linespacing="125%"><tspan
       sodipodi:role="line"
       id="tspan3872"
       x="2126.8132"
       y="1002.2955"
       style="font-size:705.55554199px">Max terms found, Full Grain verses Linear Grain</tspan></text>
<text
     xml:space="preserve"
     style="font-style:normal;font-weight:normal;font-size:1128.88879395px;line-height:125%;font-family:Sans;letter-spacing:0px;word-spacing:0px;fill:#000000;fill-opacity:1;stroke:none;stroke-width:1px;stroke-linecap:butt;stroke-linejoin:miter;stroke-opacity:1"
     x="1655.0793"
     y="-257.73901"
     id="text3874"
     sodipodi:linespacing="125%"
     transform="matrix(0,1,-1,0,0,0)"><tspan
       sodipodi:role="line"
       id="tspan3876"
       x="1655.0793"
       y="-257.73901"
       style="font-size:564.44439697px">Max Terms Found</tspan></text>
<text
     xml:space="preserve"
     style="font-style:normal;font-weight:normal;font-size:1128.88879395px;line-height:125%;font-family:Sans;letter-spacing:0px;word-spacing:0px;fill:#000000;fill-opacity:1;stroke:none;stroke-width:1px;stroke-linecap:butt;stroke-linejoin:miter;stroke-opacity:1"
     x="7089.3774"
     y="8645.5303"
     id="text3878"
     sodipodi:linespacing="125%"><tspan
       sodipodi:role="line"
       id="tspan3880"
       x="7089.3774"
       y="8645.5303"
       style="font-size:564.44439697px">Initilisation Clocks</tspan></text>
<g
     style="font-size:11.99999905px"
     id="text238"><path
       d="m 2341.6377,7637.1772 0,-26.3715 61.8784,0 0,-186.8418 -54.8115,39.1264 0,-29.3017 57.397,-39.4712 28.6123,0 0,216.4883 59.1206,0 0,26.3715 -152.1968,0 z"
       style="fill:#000000;stroke:none"
       id="path4594" /><path
       d="m 2693.7758,7515.6611 q 0,60.8443 -21.5454,92.9038 -21.373,32.0596 -63.2573,32.0596 -41.8843,0 -62.9126,-31.8872 -21.0283,-31.8872 -21.0283,-93.0762 0,-62.5678 20.3389,-93.7656 20.5112,-31.1977 64.6362,-31.1977 42.9185,0 63.2573,31.5425 20.5112,31.5424 20.5112,93.4208 z m -31.5424,0 q 0,-52.5708 -12.2378,-76.1845 -12.0655,-23.6138 -39.9883,-23.6138 -28.6123,0 -41.1948,23.2691 -12.4102,23.269 -12.4102,76.5292 0,51.709 12.5825,75.6675 12.7549,23.9585 40.333,23.9585 27.4058,0 40.1607,-24.4756 12.7549,-24.4756 12.7549,-75.1504 z"
       style="fill:#000000;stroke:none"
       id="path4596" /></g><g
     style="font-size:11.99999905px"
     id="text246"><path
       d="m 3024.5015,7637.1772 0,-21.8901 q 8.7905,-20.1665 21.373,-35.5068 12.7549,-15.5127 26.7163,-27.9229 13.9614,-12.5825 27.5781,-23.269 13.7891,-10.6865 24.8203,-21.3731 11.0313,-10.6865 17.7535,-22.4072 6.8945,-11.7207 6.8945,-26.5439 0,-19.9942 -11.7207,-31.0254 -11.7207,-11.0313 -32.5767,-11.0313 -19.8217,0 -32.749,10.8589 -12.7549,10.6865 -14.9956,30.1636 l -31.7148,-2.9302 q 3.4472,-29.1294 24.6479,-46.3657 21.3731,-17.2363 54.8115,-17.2363 36.7134,0 56.3628,17.4087 19.8218,17.2363 19.8218,49.1235 0,14.1338 -6.5498,28.0952 -6.3774,13.9614 -19.1323,27.9229 -12.7549,13.9614 -48.7788,43.2631 -19.8218,16.2022 -31.5425,29.3018 -11.7207,12.9272 -16.8916,24.9927 l 126.687,0 0,26.3715 -160.8149,0 z"
       style="fill:#000000;stroke:none"
       id="path4589" /><path
       d="m 3385.7749,7515.6611 q 0,60.8443 -21.5454,92.9038 -21.3731,32.0596 -63.2574,32.0596 -41.8842,0 -62.9125,-31.8872 -21.0284,-31.8872 -21.0284,-93.0762 0,-62.5678 20.3389,-93.7656 20.5112,-31.1977 64.6362,-31.1977 42.9185,0 63.2573,31.5425 20.5113,31.5424 20.5113,93.4208 z m -31.5425,0 q 0,-52.5708 -12.2378,-76.1845 -12.0654,-23.6138 -39.9883,-23.6138 -28.6123,0 -41.1948,23.2691 -12.4102,23.269 -12.4102,76.5292 0,51.709 12.5826,75.6675 12.7548,23.9585 40.333,23.9585 27.4057,0 40.1606,-24.4756 12.7549,-24.4756 12.7549,-75.1504 z"
       style="fill:#000000;stroke:none"
       id="path4591" /></g><g
     style="font-size:11.99999905px"
     id="text254"><path
       d="m 3880.5571,7570.1279 q 0,33.6109 -21.373,52.0537 -21.3731,18.4429 -61.0166,18.4429 -36.8858,0 -58.9483,-16.5469 -21.8901,-16.7192 -26.0268,-49.2959 l 32.0595,-2.9301 q 6.2051,43.0908 52.9156,43.0908 23.4414,0 36.7133,-11.5484 13.4444,-11.5483 13.4444,-34.3002 0,-19.8218 -15.3403,-30.8531 -15.168,-11.2036 -43.9527,-11.2036 l -17.581,0 0,-26.8887 16.8916,0 q 25.5097,0 39.4712,-11.0312 14.1337,-11.2036 14.1337,-30.853 0,-19.4771 -11.5483,-30.6807 -11.376,-11.376 -33.9556,-11.376 -20.5112,0 -33.2661,10.5142 -12.5825,10.5142 -14.6508,29.6465 l -31.1978,-2.4131 q 3.4473,-29.8189 24.6479,-46.5381 21.3731,-16.7192 54.8116,-16.7192 36.541,0 56.7075,17.0639 20.3388,16.8916 20.3388,47.2276 0,23.269 -13.0996,37.9199 -12.9272,14.4785 -37.7475,19.6494 l 0,0.6895 q 27.2334,2.9301 42.4013,18.2705 15.168,15.3403 15.168,38.6093 z"
       style="fill:#000000;stroke:none"
       id="path4584" /><path
       d="m 4078.7749,7515.6611 q 0,60.8443 -21.5454,92.9038 -21.3731,32.0596 -63.2574,32.0596 -41.8842,0 -62.9125,-31.8872 -21.0284,-31.8872 -21.0284,-93.0762 0,-62.5678 20.3389,-93.7656 20.5112,-31.1977 64.6362,-31.1977 42.9185,0 63.2573,31.5425 20.5113,31.5424 20.5113,93.4208 z m -31.5425,0 q 0,-52.5708 -12.2378,-76.1845 -12.0654,-23.6138 -39.9883,-23.6138 -28.6123,0 -41.1948,23.2691 -12.4102,23.269 -12.4102,76.5292 0,51.709 12.5826,75.6675 12.7548,23.9585 40.333,23.9585 27.4057,0 40.1606,-24.4756 12.7549,-24.4756 12.7549,-75.1504 z"
       style="fill:#000000;stroke:none"
       id="path4586" /></g><g
     style="font-size:11.99999905px"
     id="text262"><path
       d="m 4544.6001,7582.1934 0,54.9838 -29.3018,0 0,-54.9838 -114.4492,0 0,-24.1309 111.1743,-163.7451 32.5767,0 0,163.4004 34.1279,0 0,24.4756 -34.1279,0 z m -29.3018,-152.8863 q -0.3447,1.0342 -4.8261,9.1353 -4.4815,8.1011 -6.7222,11.376 l -62.2231,91.6972 -9.3077,12.7549 -2.7578,3.4473 85.8369,0 0,-128.4107 z"
       style="fill:#000000;stroke:none"
       id="path4579" /><path
       d="m 4771.7749,7515.6611 q 0,60.8443 -21.5454,92.9038 -21.3731,32.0596 -63.2574,32.0596 -41.8842,0 -62.9125,-31.8872 -21.0284,-31.8872 -21.0284,-93.0762 0,-62.5678 20.3389,-93.7656 20.5112,-31.1977 64.6362,-31.1977 42.9185,0 63.2573,31.5425 20.5113,31.5424 20.5113,93.4208 z m -31.5425,0 q 0,-52.5708 -12.2378,-76.1845 -12.0654,-23.6138 -39.9883,-23.6138 -28.6123,0 -41.1948,23.2691 -12.4102,23.269 -12.4102,76.5292 0,51.709 12.5826,75.6675 12.7548,23.9585 40.333,23.9585 27.4057,0 40.1606,-24.4756 12.7549,-24.4756 12.7549,-75.1504 z"
       style="fill:#000000;stroke:none"
       id="path4581" /></g><g
     style="font-size:11.99999905px"
     id="text270"><path
       d="m 5266.2466,7558.0625 q 0,38.437 -22.9243,60.4995 -22.752,22.0625 -63.2574,22.0625 -33.9555,0 -54.8115,-14.8232 -20.8559,-14.8233 -26.3716,-42.9185 l 31.3701,-3.6196 q 9.8248,36.0239 50.5025,36.0239 24.9927,0 39.1264,-14.9956 14.1338,-15.168 14.1338,-41.5395 0,-22.9244 -14.3061,-37.0581 -14.1338,-14.1338 -38.2647,-14.1338 -12.5825,0 -23.4414,3.9643 -10.8589,3.9644 -21.7177,13.4444 l -30.336,0 8.1011,-130.6514 138.063,0 0,26.3716 -109.7954,0 -4.6538,77.0464 q 20.1665,-15.5127 50.1577,-15.5127 35.8515,0 57.0522,21.0283 21.3731,21.0283 21.3731,54.8115 z"
       style="fill:#000000;stroke:none"
       id="path4574" /><path
       d="m 5463.7749,7515.6611 q 0,60.8443 -21.5454,92.9038 -21.3731,32.0596 -63.2574,32.0596 -41.8842,0 -62.9125,-31.8872 -21.0284,-31.8872 -21.0284,-93.0762 0,-62.5678 20.3389,-93.7656 20.5112,-31.1977 64.6362,-31.1977 42.9185,0 63.2573,31.5425 20.5113,31.5424 20.5113,93.4208 z m -31.5425,0 q 0,-52.5708 -12.2378,-76.1845 -12.0654,-23.6138 -39.9883,-23.6138 -28.6123,0 -41.1948,23.2691 -12.4102,23.269 -12.4102,76.5292 0,51.709 12.5826,75.6675 12.7548,23.9585 40.333,23.9585 27.4057,0 40.1606,-24.4756 12.7549,-24.4756 12.7549,-75.1504 z"
       style="fill:#000000;stroke:none"
       id="path4576" /></g><g
     style="font-size:11.99999905px"
     id="text278"><path
       d="m 5958.5571,7557.7178 q 0,38.437 -20.8559,60.6719 -20.856,22.2348 -57.5694,22.2348 -41.0224,0 -62.7402,-30.5083 -21.7178,-30.5083 -21.7178,-88.7671 0,-63.0849 22.5796,-96.8681 22.5796,-33.7832 64.2915,-33.7832 54.9839,0 69.29,49.4682 l -29.6464,5.3433 q -9.1353,-29.6465 -39.9883,-29.6465 -26.544,0 -41.1948,24.8203 -14.4785,24.648 -14.4785,71.5308 8.4458,-15.6851 23.7861,-23.7862 15.3403,-8.2734 35.1621,-8.2734 33.6108,0 53.2602,21.0283 19.8218,21.0283 19.8218,56.5352 z m -31.5425,1.3789 q 0,-26.3716 -12.9272,-40.6777 -12.9273,-14.3062 -36.0239,-14.3062 -21.7178,0 -35.1621,12.7549 -13.272,12.5825 -13.272,34.8174 0,28.0952 13.7891,46.021 13.9614,17.9257 35.6791,17.9257 22.4073,0 35.1622,-14.9956 12.7548,-15.1679 12.7548,-41.5395 z"
       style="fill:#000000;stroke:none"
       id="path4569" /><path
       d="m 6156.7749,7515.6611 q 0,60.8443 -21.5454,92.9038 -21.3731,32.0596 -63.2574,32.0596 -41.8842,0 -62.9125,-31.8872 -21.0284,-31.8872 -21.0284,-93.0762 0,-62.5678 20.3389,-93.7656 20.5112,-31.1977 64.6362,-31.1977 42.9185,0 63.2573,31.5425 20.5113,31.5424 20.5113,93.4208 z m -31.5425,0 q 0,-52.5708 -12.2378,-76.1845 -12.0654,-23.6138 -39.9883,-23.6138 -28.6123,0 -41.1948,23.2691 -12.4102,23.269 -12.4102,76.5292 0,51.709 12.5826,75.6675 12.7548,23.9585 40.333,23.9585 27.4057,0 40.1606,-24.4756 12.7549,-24.4756 12.7549,-75.1504 z"
       style="fill:#000000;stroke:none"
       id="path4571" /></g><g
     style="font-size:11.99999905px"
     id="text286"><path
       d="m 6649.3164,7419.4824 q -37.2305,56.8799 -52.5708,89.1118 -15.3403,32.232 -23.0967,63.6021 -7.584,31.3701 -7.584,64.9809 l -32.4043,0 q 0,-46.538 19.6495,-97.9023 19.8217,-51.5366 66.0151,-118.5859 l -130.479,0 0,-26.3716 160.4702,0 0,25.165 z"
       style="fill:#000000;stroke:none"
       id="path4564" /><path
       d="m 6849.7749,7515.6611 q 0,60.8443 -21.5454,92.9038 -21.3731,32.0596 -63.2574,32.0596 -41.8842,0 -62.9125,-31.8872 -21.0284,-31.8872 -21.0284,-93.0762 0,-62.5678 20.3389,-93.7656 20.5112,-31.1977 64.6362,-31.1977 42.9185,0 63.2573,31.5425 20.5113,31.5424 20.5113,93.4208 z m -31.5425,0 q 0,-52.5708 -12.2378,-76.1845 -12.0654,-23.6138 -39.9883,-23.6138 -28.6123,0 -41.1948,23.2691 -12.4102,23.269 -12.4102,76.5292 0,51.709 12.5826,75.6675 12.7548,23.9585 40.333,23.9585 27.4057,0 40.1606,-24.4756 12.7549,-24.4756 12.7549,-75.1504 z"
       style="fill:#000000;stroke:none"
       id="path4566" /></g><g
     style="font-size:11.99999905px"
     id="text294"><path
       d="m 7343.7295,7569.4385 q 0,33.6108 -21.3731,52.3984 -21.373,18.7876 -61.3613,18.7876 -38.9541,0 -61.0166,-18.4429 -21.8901,-18.4428 -21.8901,-52.3984 0,-23.7861 13.6167,-39.9883 13.6167,-16.2021 34.8174,-19.6494 l 0,-0.6894 q -19.8218,-4.6538 -31.3702,-20.1665 -11.3759,-15.5127 -11.3759,-36.3687 0,-27.7505 20.6836,-44.9868 20.8559,-17.2363 55.8457,-17.2363 35.8515,0 56.5351,16.8916 20.856,16.8916 20.856,45.6762 0,20.856 -11.5484,36.3687 -11.5483,15.5127 -31.5425,19.477 l 0,0.6895 q 23.2691,3.792 36.1963,19.8218 12.9273,15.8574 12.9273,39.8159 z m -38.2647,-114.4492 q 0,-41.1948 -45.1591,-41.1948 -21.8902,0 -33.4385,10.3417 -11.376,10.3418 -11.376,30.8531 0,20.8559 11.7207,31.8872 11.8931,10.8589 33.4385,10.8589 21.8901,0 33.2661,-9.9971 11.5483,-10.1694 11.5483,-32.749 z m 6.0327,111.519 q 0,-22.5796 -13.4443,-33.9556 -13.4443,-11.5483 -37.7475,-11.5483 -23.6138,0 -36.8858,12.4102 -13.272,12.2378 -13.272,33.7832 0,50.1577 51.1919,50.1577 25.3374,0 37.7476,-12.0655 12.4101,-12.2378 12.4101,-38.7817 z"
       style="fill:#000000;stroke:none"
       id="path4559" /><path
       d="m 7541.7749,7515.6611 q 0,60.8443 -21.5454,92.9038 -21.3731,32.0596 -63.2574,32.0596 -41.8842,0 -62.9125,-31.8872 -21.0284,-31.8872 -21.0284,-93.0762 0,-62.5678 20.3389,-93.7656 20.5112,-31.1977 64.6362,-31.1977 42.9185,0 63.2573,31.5425 20.5113,31.5424 20.5113,93.4208 z m -31.5425,0 q 0,-52.5708 -12.2378,-76.1845 -12.0654,-23.6138 -39.9883,-23.6138 -28.6123,0 -41.1948,23.2691 -12.4102,23.269 -12.4102,76.5292 0,51.709 12.5826,75.6675 12.7548,23.9585 40.333,23.9585 27.4057,0 40.1606,-24.4756 12.7549,-24.4756 12.7549,-75.1504 z"
       style="fill:#000000;stroke:none"
       id="path4561" /></g><g
     style="font-size:11.99999905px"
     id="text302"><path
       d="m 8035.3501,7510.835 q 0,62.5678 -22.9243,96.1787 -22.752,33.6108 -64.981,33.6108 -28.4399,0 -45.6762,-11.8931 -17.064,-12.0654 -24.4756,-38.7817 l 29.6464,-4.6538 q 9.3077,30.3359 41.0225,30.3359 26.7163,0 41.3672,-24.8203 14.6509,-24.8203 15.3403,-70.8413 -6.8945,15.5127 -23.6137,24.9927 -16.7193,9.3076 -36.7134,9.3076 -32.749,0 -52.3985,-22.4072 -19.6494,-22.4072 -19.6494,-59.4653 0,-38.0923 21.3731,-59.8101 21.373,-21.8901 59.4653,-21.8901 40.5054,0 61.3613,29.9912 20.856,29.9912 20.856,90.146 z m -33.7832,-29.9912 q 0,-29.3018 -13.4444,-47.0552 -13.4443,-17.9258 -36.0239,-17.9258 -22.4072,0 -35.3344,15.3403 -12.9273,15.168 -12.9273,41.1949 0,26.5439 12.9273,42.0566 12.9272,15.3403 34.9897,15.3403 13.4443,0 24.9927,-6.0327 11.5483,-6.2051 18.0981,-17.4087 6.7222,-11.2036 6.7222,-25.5097 z"
       style="fill:#000000;stroke:none"
       id="path4554" /><path
       d="m 8234.7744,7515.6611 q 0,60.8443 -21.5454,92.9038 -21.3731,32.0596 -63.2573,32.0596 -41.8843,0 -62.9126,-31.8872 -21.0284,-31.8872 -21.0284,-93.0762 0,-62.5678 20.3389,-93.7656 20.5112,-31.1977 64.6362,-31.1977 42.9185,0 63.2574,31.5425 20.5112,31.5424 20.5112,93.4208 z m -31.5425,0 q 0,-52.5708 -12.2378,-76.1845 -12.0654,-23.6138 -39.9883,-23.6138 -28.6123,0 -41.1948,23.2691 -12.4101,23.269 -12.4101,76.5292 0,51.709 12.5825,75.6675 12.7549,23.9585 40.333,23.9585 27.4057,0 40.1606,-24.4756 12.7549,-24.4756 12.7549,-75.1504 z"
       style="fill:#000000;stroke:none"
       id="path4556" /></g><g
     style="font-size:11.99999905px"
     id="text310"><path
       d="m 8480.6367,7637.1772 0,-26.3715 61.8784,0 0,-186.8418 -54.8115,39.1264 0,-29.3017 57.397,-39.4712 28.6123,0 0,216.4883 59.1206,0 0,26.3715 -152.1968,0 z"
       style="fill:#000000;stroke:none"
       id="path4547" /><path
       d="m 8832.7749,7515.6611 q 0,60.8443 -21.5454,92.9038 -21.3731,32.0596 -63.2574,32.0596 -41.8842,0 -62.9125,-31.8872 -21.0284,-31.8872 -21.0284,-93.0762 0,-62.5678 20.3389,-93.7656 20.5112,-31.1977 64.6362,-31.1977 42.9185,0 63.2573,31.5425 20.5113,31.5424 20.5113,93.4208 z m -31.5425,0 q 0,-52.5708 -12.2378,-76.1845 -12.0654,-23.6138 -39.9883,-23.6138 -28.6123,0 -41.1948,23.2691 -12.4102,23.269 -12.4102,76.5292 0,51.709 12.5826,75.6675 12.7548,23.9585 40.333,23.9585 27.4057,0 40.1606,-24.4756 12.7549,-24.4756 12.7549,-75.1504 z"
       style="fill:#000000;stroke:none"
       id="path4549" /><path
       d="m 9029.269,7515.6611 q 0,60.8443 -21.5454,92.9038 -21.3731,32.0596 -63.2573,32.0596 -41.8843,0 -62.9126,-31.8872 -21.0283,-31.8872 -21.0283,-93.0762 0,-62.5678 20.3388,-93.7656 20.5113,-31.1977 64.6362,-31.1977 42.9185,0 63.2574,31.5425 20.5112,31.5424 20.5112,93.4208 z m -31.5425,0 q 0,-52.5708 -12.2378,-76.1845 -12.0654,-23.6138 -39.9883,-23.6138 -28.6123,0 -41.1948,23.2691 -12.4101,23.269 -12.4101,76.5292 0,51.709 12.5825,75.6675 12.7549,23.9585 40.333,23.9585 27.4058,0 40.1606,-24.4756 12.7549,-24.4756 12.7549,-75.1504 z"
       style="fill:#000000;stroke:none"
       id="path4551" /></g><g
     style="font-size:11.99999905px"
     id="text318"><path
       d="m 9172.6367,7637.1772 0,-26.3715 61.8784,0 0,-186.8418 -54.8115,39.1264 0,-29.3017 57.397,-39.4712 28.6123,0 0,216.4883 59.1206,0 0,26.3715 -152.1968,0 z"
       style="fill:#000000;stroke:none"
       id="path4540" /><path
       d="m 9342.9316,7637.1772 0,-26.3715 61.8784,0 0,-186.8418 -54.8115,39.1264 0,-29.3017 57.397,-39.4712 28.6123,0 0,216.4883 59.1206,0 0,26.3715 -152.1968,0 z"
       style="fill:#000000;stroke:none"
       id="path4542" /><path
       d="m 9695.0698,7515.6611 q 0,60.8443 -21.5454,92.9038 -21.3731,32.0596 -63.2573,32.0596 -41.8843,0 -62.9126,-31.8872 -21.0284,-31.8872 -21.0284,-93.0762 0,-62.5678 20.3389,-93.7656 20.5112,-31.1977 64.6362,-31.1977 42.9185,0 63.2573,31.5425 20.5113,31.5424 20.5113,93.4208 z m -31.5425,0 q 0,-52.5708 -12.2378,-76.1845 -12.0654,-23.6138 -39.9883,-23.6138 -28.6123,0 -41.1948,23.2691 -12.4101,23.269 -12.4101,76.5292 0,51.709 12.5825,75.6675 12.7549,23.9585 40.333,23.9585 27.4057,0 40.1606,-24.4756 12.7549,-24.4756 12.7549,-75.1504 z"
       style="fill:#000000;stroke:none"
       id="path4544" /></g><g
     style="font-size:11.99999905px"
     id="text326"><path
       d="m 9865.6367,7637.1772 0,-26.3715 61.8784,0 0,-186.8418 -54.8115,39.1264 0,-29.3017 57.397,-39.4712 28.6123,0 0,216.4883 59.1201,0 0,26.3715 -152.1963,0 z"
       style="fill:#000000;stroke:none"
       id="path4533" /><path
       d="m 10052.996,7637.1772 0,-21.8901 q 8.79,-20.1665 21.373,-35.5068 12.755,-15.5127 26.716,-27.9229 13.961,-12.5825 27.578,-23.269 13.789,-10.6865 24.82,-21.3731 11.032,-10.6865 17.754,-22.4072 6.894,-11.7207 6.894,-26.5439 0,-19.9942 -11.72,-31.0254 -11.721,-11.0313 -32.577,-11.0313 -19.822,0 -32.749,10.8589 -12.755,10.6865 -14.996,30.1636 l -31.715,-2.9302 q 3.448,-29.1294 24.648,-46.3657 21.373,-17.2363 54.812,-17.2363 36.713,0 56.363,17.4087 19.822,17.2363 19.822,49.1235 0,14.1338 -6.55,28.0952 -6.378,13.9614 -19.133,27.9229 -12.754,13.9614 -48.778,43.2631 -19.822,16.2022 -31.543,29.3018 -11.721,12.9272 -16.891,24.9927 l 126.687,0 0,26.3715 -160.815,0 z"
       style="fill:#000000;stroke:none"
       id="path4535" /><path
       d="m 10414.269,7515.6611 q 0,60.8443 -21.545,92.9038 -21.373,32.0596 -63.258,32.0596 -41.884,0 -62.912,-31.8872 -21.029,-31.8872 -21.029,-93.0762 0,-62.5678 20.339,-93.7656 20.511,-31.1977 64.636,-31.1977 42.919,0 63.258,31.5425 20.511,31.5424 20.511,93.4208 z m -31.542,0 q 0,-52.5708 -12.238,-76.1845 -12.066,-23.6138 -39.989,-23.6138 -28.612,0 -41.194,23.2691 -12.411,23.269 -12.411,76.5292 0,51.709 12.583,75.6675 12.755,23.9585 40.333,23.9585 27.406,0 40.161,-24.4756 12.755,-24.4756 12.755,-75.1504 z"
       style="fill:#000000;stroke:none"
       id="path4537" /></g><g
     style="font-size:11.99999905px"
     id="text334"><path
       d="m 10558.637,7637.1772 0,-26.3715 61.878,0 0,-186.8418 -54.811,39.1264 0,-29.3017 57.397,-39.4712 28.612,0 0,216.4883 59.12,0 0,26.3715 -152.196,0 z"
       style="fill:#000000;stroke:none"
       id="path4526" /><path
       d="m 10909.051,7570.1279 q 0,33.6109 -21.373,52.0537 -21.373,18.4429 -61.016,18.4429 -36.886,0 -58.949,-16.5469 -21.89,-16.7192 -26.026,-49.2959 l 32.059,-2.9301 q 6.205,43.0908 52.916,43.0908 23.441,0 36.713,-11.5484 13.444,-11.5483 13.444,-34.3002 0,-19.8218 -15.34,-30.8531 -15.168,-11.2036 -43.953,-11.2036 l -17.581,0 0,-26.8887 16.892,0 q 25.51,0 39.471,-11.0312 14.134,-11.2036 14.134,-30.853 0,-19.4771 -11.548,-30.6807 -11.376,-11.376 -33.956,-11.376 -20.511,0 -33.266,10.5142 -12.583,10.5142 -14.651,29.6465 l -31.198,-2.4131 q 3.447,-29.8189 24.648,-46.5381 21.373,-16.7192 54.812,-16.7192 36.541,0 56.707,17.0639 20.339,16.8916 20.339,47.2276 0,23.269 -13.1,37.9199 -12.927,14.4785 -37.747,19.6494 l 0,0.6895 q 27.233,2.9301 42.401,18.2705 15.168,15.3403 15.168,38.6093 z"
       style="fill:#000000;stroke:none"
       id="path4528" /><path
       d="m 11107.269,7515.6611 q 0,60.8443 -21.545,92.9038 -21.373,32.0596 -63.258,32.0596 -41.884,0 -62.912,-31.8872 -21.029,-31.8872 -21.029,-93.0762 0,-62.5678 20.339,-93.7656 20.511,-31.1977 64.636,-31.1977 42.919,0 63.258,31.5425 20.511,31.5424 20.511,93.4208 z m -31.542,0 q 0,-52.5708 -12.238,-76.1845 -12.066,-23.6138 -39.989,-23.6138 -28.612,0 -41.194,23.2691 -12.411,23.269 -12.411,76.5292 0,51.709 12.583,75.6675 12.755,23.9585 40.333,23.9585 27.406,0 40.161,-24.4756 12.755,-24.4756 12.755,-75.1504 z"
       style="fill:#000000;stroke:none"
       id="path4530" /></g><g
     style="font-size:11.99999905px"
     id="text342"><path
       d="m 11251.637,7637.1772 0,-26.3715 61.878,0 0,-186.8418 -54.811,39.1264 0,-29.3017 57.397,-39.4712 28.612,0 0,216.4883 59.12,0 0,26.3715 -152.196,0 z"
       style="fill:#000000;stroke:none"
       id="path4519" /><path
       d="m 11573.094,7582.1934 0,54.9838 -29.302,0 0,-54.9838 -114.449,0 0,-24.1309 111.175,-163.7451 32.576,0 0,163.4004 34.128,0 0,24.4756 -34.128,0 z m -29.302,-152.8863 q -0.344,1.0342 -4.826,9.1353 -4.481,8.1011 -6.722,11.376 l -62.223,91.6972 -9.308,12.7549 -2.757,3.4473 85.836,0 0,-128.4107 z"
       style="fill:#000000;stroke:none"
       id="path4521" /><path
       d="m 11800.269,7515.6611 q 0,60.8443 -21.545,92.9038 -21.373,32.0596 -63.258,32.0596 -41.884,0 -62.912,-31.8872 -21.029,-31.8872 -21.029,-93.0762 0,-62.5678 20.339,-93.7656 20.511,-31.1977 64.636,-31.1977 42.919,0 63.258,31.5425 20.511,31.5424 20.511,93.4208 z m -31.542,0 q 0,-52.5708 -12.238,-76.1845 -12.066,-23.6138 -39.989,-23.6138 -28.612,0 -41.194,23.2691 -12.411,23.269 -12.411,76.5292 0,51.709 12.583,75.6675 12.755,23.9585 40.333,23.9585 27.406,0 40.161,-24.4756 12.755,-24.4756 12.755,-75.1504 z"
       style="fill:#000000;stroke:none"
       id="path4523" /></g><g
     style="font-size:11.99999905px"
     id="text350"><path
       d="m 11943.637,7637.1772 0,-26.3715 61.878,0 0,-186.8418 -54.811,39.1264 0,-29.3017 57.397,-39.4712 28.612,0 0,216.4883 59.12,0 0,26.3715 -152.196,0 z"
       style="fill:#000000;stroke:none"
       id="path4512" /><path
       d="m 12294.741,7558.0625 q 0,38.437 -22.925,60.4995 -22.752,22.0625 -63.257,22.0625 -33.956,0 -54.811,-14.8232 -20.856,-14.8233 -26.372,-42.9185 l 31.37,-3.6196 q 9.825,36.0239 50.503,36.0239 24.992,0 39.126,-14.9956 14.134,-15.168 14.134,-41.5395 0,-22.9244 -14.306,-37.0581 -14.134,-14.1338 -38.265,-14.1338 -12.583,0 -23.441,3.9643 -10.859,3.9644 -21.718,13.4444 l -30.336,0 8.101,-130.6514 138.063,0 0,26.3716 -109.795,0 -4.654,77.0464 q 20.166,-15.5127 50.157,-15.5127 35.852,0 57.053,21.0283 21.373,21.0283 21.373,54.8115 z"
       style="fill:#000000;stroke:none"
       id="path4514" /><path
       d="m 12492.269,7515.6611 q 0,60.8443 -21.545,92.9038 -21.373,32.0596 -63.258,32.0596 -41.884,0 -62.912,-31.8872 -21.029,-31.8872 -21.029,-93.0762 0,-62.5678 20.339,-93.7656 20.511,-31.1977 64.636,-31.1977 42.919,0 63.258,31.5425 20.511,31.5424 20.511,93.4208 z m -31.542,0 q 0,-52.5708 -12.238,-76.1845 -12.066,-23.6138 -39.989,-23.6138 -28.612,0 -41.194,23.2691 -12.411,23.269 -12.411,76.5292 0,51.709 12.583,75.6675 12.755,23.9585 40.333,23.9585 27.406,0 40.161,-24.4756 12.755,-24.4756 12.755,-75.1504 z"
       style="fill:#000000;stroke:none"
       id="path4516" /></g><g
     style="font-size:11.99999905px"
     id="text358"><path
       d="m 12636.637,7637.1772 0,-26.3715 61.878,0 0,-186.8418 -54.811,39.1264 0,-29.3017 57.397,-39.4712 28.612,0 0,216.4883 59.12,0 0,26.3715 -152.196,0 z"
       style="fill:#000000;stroke:none"
       id="path4505" /><path
       d="m 12987.051,7557.7178 q 0,38.437 -20.856,60.6719 -20.856,22.2348 -57.569,22.2348 -41.023,0 -62.74,-30.5083 -21.718,-30.5083 -21.718,-88.7671 0,-63.0849 22.58,-96.8681 22.579,-33.7832 64.291,-33.7832 54.984,0 69.29,49.4682 l -29.646,5.3433 q -9.136,-29.6465 -39.989,-29.6465 -26.544,0 -41.195,24.8203 -14.478,24.648 -14.478,71.5308 8.446,-15.6851 23.786,-23.7862 15.34,-8.2734 35.162,-8.2734 33.611,0 53.26,21.0283 19.822,21.0283 19.822,56.5352 z m -31.542,1.3789 q 0,-26.3716 -12.927,-40.6777 -12.928,-14.3062 -36.024,-14.3062 -21.718,0 -35.163,12.7549 -13.271,12.5825 -13.271,34.8174 0,28.0952 13.789,46.021 13.961,17.9257 35.679,17.9257 22.407,0 35.162,-14.9956 12.755,-15.1679 12.755,-41.5395 z"
       style="fill:#000000;stroke:none"
       id="path4507" /><path
       d="m 13185.269,7515.6611 q 0,60.8443 -21.545,92.9038 -21.373,32.0596 -63.258,32.0596 -41.884,0 -62.912,-31.8872 -21.029,-31.8872 -21.029,-93.0762 0,-62.5678 20.339,-93.7656 20.511,-31.1977 64.636,-31.1977 42.919,0 63.258,31.5425 20.511,31.5424 20.511,93.4208 z m -31.542,0 q 0,-52.5708 -12.238,-76.1845 -12.066,-23.6138 -39.989,-23.6138 -28.612,0 -41.194,23.2691 -12.411,23.269 -12.411,76.5292 0,51.709 12.583,75.6675 12.755,23.9585 40.333,23.9585 27.406,0 40.161,-24.4756 12.755,-24.4756 12.755,-75.1504 z"
       style="fill:#000000;stroke:none"
       id="path4509" /></g><g
     style="font-size:11.99999905px"
     id="text366"><path
       d="m 13329.636,7637.1772 0,-26.3715 61.878,0 0,-186.8418 -54.811,39.1264 0,-29.3017 57.397,-39.4712 28.612,0 0,216.4883 59.121,0 0,26.3715 -152.197,0 z"
       style="fill:#000000;stroke:none"
       id="path4498" /><path
       d="m 13677.81,7419.4824 q -37.231,56.8799 -52.571,89.1118 -15.341,32.232 -23.097,63.6021 -7.584,31.3701 -7.584,64.9809 l -32.404,0 q 0,-46.538 19.649,-97.9023 19.822,-51.5366 66.015,-118.5859 l -130.479,0 0,-26.3716 160.471,0 0,25.165 z"
       style="fill:#000000;stroke:none"
       id="path4500" /><path
       d="m 13878.268,7515.6611 q 0,60.8443 -21.545,92.9038 -21.373,32.0596 -63.258,32.0596 -41.884,0 -62.912,-31.8872 -21.029,-31.8872 -21.029,-93.0762 0,-62.5678 20.339,-93.7656 20.511,-31.1977 64.636,-31.1977 42.919,0 63.258,31.5425 20.511,31.5424 20.511,93.4208 z m -31.542,0 q 0,-52.5708 -12.238,-76.1845 -12.066,-23.6138 -39.989,-23.6138 -28.612,0 -41.194,23.2691 -12.411,23.269 -12.411,76.5292 0,51.709 12.583,75.6675 12.755,23.9585 40.333,23.9585 27.406,0 40.161,-24.4756 12.755,-24.4756 12.755,-75.1504 z"
       style="fill:#000000;stroke:none"
       id="path4502" /></g><g
     style="font-size:11.99999905px"
     id="text374"><path
       d="m 14021.636,7637.1772 0,-26.3715 61.878,0 0,-186.8418 -54.811,39.1264 0,-29.3017 57.397,-39.4712 28.612,0 0,216.4883 59.121,0 0,26.3715 -152.197,0 z"
       style="fill:#000000;stroke:none"
       id="path4491" /><path
       d="m 14372.223,7569.4385 q 0,33.6108 -21.373,52.3984 -21.373,18.7876 -61.362,18.7876 -38.954,0 -61.016,-18.4429 -21.89,-18.4428 -21.89,-52.3984 0,-23.7861 13.616,-39.9883 13.617,-16.2021 34.818,-19.6494 l 0,-0.6894 q -19.822,-4.6538 -31.371,-20.1665 -11.375,-15.5127 -11.375,-36.3687 0,-27.7505 20.683,-44.9868 20.856,-17.2363 55.846,-17.2363 35.851,0 56.535,16.8916 20.856,16.8916 20.856,45.6762 0,20.856 -11.548,36.3687 -11.549,15.5127 -31.543,19.477 l 0,0.6895 q 23.269,3.792 36.196,19.8218 12.928,15.8574 12.928,39.8159 z m -38.265,-114.4492 q 0,-41.1948 -45.159,-41.1948 -21.89,0 -33.439,10.3417 -11.376,10.3418 -11.376,30.8531 0,20.8559 11.721,31.8872 11.893,10.8589 33.439,10.8589 21.89,0 33.266,-9.9971 11.548,-10.1694 11.548,-32.749 z m 6.033,111.519 q 0,-22.5796 -13.445,-33.9556 -13.444,-11.5483 -37.747,-11.5483 -23.614,0 -36.886,12.4102 -13.272,12.2378 -13.272,33.7832 0,50.1577 51.192,50.1577 25.337,0 37.748,-12.0655 12.41,-12.2378 12.41,-38.7817 z"
       style="fill:#000000;stroke:none"
       id="path4493" /><path
       d="m 14570.268,7515.6611 q 0,60.8443 -21.545,92.9038 -21.373,32.0596 -63.258,32.0596 -41.884,0 -62.912,-31.8872 -21.029,-31.8872 -21.029,-93.0762 0,-62.5678 20.339,-93.7656 20.511,-31.1977 64.636,-31.1977 42.919,0 63.258,31.5425 20.511,31.5424 20.511,93.4208 z m -31.542,0 q 0,-52.5708 -12.238,-76.1845 -12.066,-23.6138 -39.989,-23.6138 -28.612,0 -41.194,23.2691 -12.411,23.269 -12.411,76.5292 0,51.709 12.583,75.6675 12.755,23.9585 40.333,23.9585 27.406,0 40.161,-24.4756 12.755,-24.4756 12.755,-75.1504 z"
       style="fill:#000000;stroke:none"
       id="path4495" /></g><g
     style="font-size:11.99999905px"
     id="text382"><path
       d="m 14714.636,7637.1772 0,-26.3715 61.878,0 0,-186.8418 -54.811,39.1264 0,-29.3017 57.397,-39.4712 28.612,0 0,216.4883 59.121,0 0,26.3715 -152.197,0 z"
       style="fill:#000000;stroke:none"
       id="path4484" /><path
       d="m 15063.844,7510.835 q 0,62.5678 -22.925,96.1787 -22.752,33.6108 -64.981,33.6108 -28.439,0 -45.676,-11.8931 -17.064,-12.0654 -24.475,-38.7817 l 29.646,-4.6538 q 9.308,30.3359 41.023,30.3359 26.716,0 41.367,-24.8203 14.651,-24.8203 15.34,-70.8413 -6.894,15.5127 -23.614,24.9927 -16.719,9.3076 -36.713,9.3076 -32.749,0 -52.399,-22.4072 -19.649,-22.4072 -19.649,-59.4653 0,-38.0923 21.373,-59.8101 21.373,-21.8901 59.465,-21.8901 40.506,0 61.362,29.9912 20.856,29.9912 20.856,90.146 z m -33.783,-29.9912 q 0,-29.3018 -13.445,-47.0552 -13.444,-17.9258 -36.024,-17.9258 -22.407,0 -35.334,15.3403 -12.927,15.168 -12.927,41.1949 0,26.5439 12.927,42.0566 12.927,15.3403 34.99,15.3403 13.444,0 24.992,-6.0327 11.549,-6.2051 18.098,-17.4087 6.723,-11.2036 6.723,-25.5097 z"
       style="fill:#000000;stroke:none"
       id="path4486" /><path
       d="m 15263.268,7515.6611 q 0,60.8443 -21.545,92.9038 -21.373,32.0596 -63.258,32.0596 -41.884,0 -62.912,-31.8872 -21.029,-31.8872 -21.029,-93.0762 0,-62.5678 20.339,-93.7656 20.511,-31.1977 64.636,-31.1977 42.919,0 63.258,31.5425 20.511,31.5424 20.511,93.4208 z m -31.542,0 q 0,-52.5708 -12.238,-76.1845 -12.066,-23.6138 -39.989,-23.6138 -28.612,0 -41.194,23.2691 -12.411,23.269 -12.411,76.5292 0,51.709 12.583,75.6675 12.755,23.9585 40.333,23.9585 27.406,0 40.161,-24.4756 12.755,-24.4756 12.755,-75.1504 z"
       style="fill:#000000;stroke:none"
       id="path4488" /></g><g
     style="font-size:11.99999905px"
     id="text390"><path
       d="m 15398.5,7637.1772 0,-21.8901 q 8.791,-20.1665 21.374,-35.5068 12.754,-15.5127 26.716,-27.9229 13.961,-12.5825 27.578,-23.269 13.789,-10.6865 24.82,-21.3731 11.032,-10.6865 17.754,-22.4072 6.894,-11.7207 6.894,-26.5439 0,-19.9942 -11.72,-31.0254 -11.721,-11.0313 -32.577,-11.0313 -19.822,0 -32.749,10.8589 -12.755,10.6865 -14.996,30.1636 l -31.715,-2.9302 q 3.448,-29.1294 24.648,-46.3657 21.373,-17.2363 54.812,-17.2363 36.713,0 56.363,17.4087 19.821,17.2363 19.821,49.1235 0,14.1338 -6.549,28.0952 -6.378,13.9614 -19.133,27.9229 -12.755,13.9614 -48.779,43.2631 -19.821,16.2022 -31.542,29.3018 -11.721,12.9272 -16.892,24.9927 l 126.687,0 0,26.3715 -160.815,0 z"
       style="fill:#000000;stroke:none"
       id="path4477" /><path
       d="m 15759.774,7515.6611 q 0,60.8443 -21.546,92.9038 -21.373,32.0596 -63.257,32.0596 -41.884,0 -62.912,-31.8872 -21.029,-31.8872 -21.029,-93.0762 0,-62.5678 20.339,-93.7656 20.511,-31.1977 64.636,-31.1977 42.919,0 63.258,31.5425 20.511,31.5424 20.511,93.4208 z m -31.543,0 q 0,-52.5708 -12.237,-76.1845 -12.066,-23.6138 -39.989,-23.6138 -28.612,0 -41.194,23.2691 -12.411,23.269 -12.411,76.5292 0,51.709 12.583,75.6675 12.755,23.9585 40.333,23.9585 27.406,0 40.161,-24.4756 12.754,-24.4756 12.754,-75.1504 z"
       style="fill:#000000;stroke:none"
       id="path4479" /><path
       d="m 15956.268,7515.6611 q 0,60.8443 -21.545,92.9038 -21.373,32.0596 -63.258,32.0596 -41.884,0 -62.912,-31.8872 -21.029,-31.8872 -21.029,-93.0762 0,-62.5678 20.339,-93.7656 20.511,-31.1977 64.636,-31.1977 42.919,0 63.258,31.5425 20.511,31.5424 20.511,93.4208 z m -31.542,0 q 0,-52.5708 -12.238,-76.1845 -12.066,-23.6138 -39.989,-23.6138 -28.612,0 -41.194,23.2691 -12.411,23.269 -12.411,76.5292 0,51.709 12.583,75.6675 12.755,23.9585 40.333,23.9585 27.406,0 40.161,-24.4756 12.755,-24.4756 12.755,-75.1504 z"
       style="fill:#000000;stroke:none"
       id="path4481" /></g><g
     style="font-size:11.99999905px"
     id="text398"><path
       d="m 16090.496,7637.1772 0,-21.8901 q 8.79,-20.1665 21.373,-35.5068 12.755,-15.5127 26.716,-27.9229 13.961,-12.5825 27.578,-23.269 13.789,-10.6865 24.82,-21.3731 11.032,-10.6865 17.754,-22.4072 6.894,-11.7207 6.894,-26.5439 0,-19.9942 -11.72,-31.0254 -11.721,-11.0313 -32.577,-11.0313 -19.822,0 -32.749,10.8589 -12.755,10.6865 -14.996,30.1636 l -31.714,-2.9302 q 3.447,-29.1294 24.647,-46.3657 21.374,-17.2363 54.812,-17.2363 36.713,0 56.363,17.4087 19.822,17.2363 19.822,49.1235 0,14.1338 -6.55,28.0952 -6.378,13.9614 -19.133,27.9229 -12.754,13.9614 -48.778,43.2631 -19.822,16.2022 -31.543,29.3018 -11.721,12.9272 -16.891,24.9927 l 126.687,0 0,26.3715 -160.815,0 z"
       style="fill:#000000;stroke:none"
       id="path4470" /><path
       d="m 16296.125,7637.1772 0,-26.3715 61.878,0 0,-186.8418 -54.811,39.1264 0,-29.3017 57.397,-39.4712 28.612,0 0,216.4883 59.121,0 0,26.3715 -152.197,0 z"
       style="fill:#000000;stroke:none"
       id="path4472" /><path
       d="m 16648.263,7515.6611 q 0,60.8443 -21.545,92.9038 -21.373,32.0596 -63.258,32.0596 -41.884,0 -62.912,-31.8872 -21.029,-31.8872 -21.029,-93.0762 0,-62.5678 20.339,-93.7656 20.512,-31.1977 64.637,-31.1977 42.918,0 63.257,31.5425 20.511,31.5424 20.511,93.4208 z m -31.542,0 q 0,-52.5708 -12.238,-76.1845 -12.066,-23.6138 -39.988,-23.6138 -28.613,0 -41.195,23.2691 -12.41,23.269 -12.41,76.5292 0,51.709 12.582,75.6675 12.755,23.9585 40.333,23.9585 27.406,0 40.161,-24.4756 12.755,-24.4756 12.755,-75.1504 z"
       style="fill:#000000;stroke:none"
       id="path4474" /></g><g
     style="font-size:11.99999905px"
     id="text406"><path
       d="m 16783.498,7637.1772 0,-21.8901 q 8.79,-20.1665 21.373,-35.5068 12.754,-15.5127 26.716,-27.9229 13.961,-12.5825 27.578,-23.269 13.789,-10.6865 24.82,-21.3731 11.032,-10.6865 17.754,-22.4072 6.894,-11.7207 6.894,-26.5439 0,-19.9942 -11.72,-31.0254 -11.721,-11.0313 -32.577,-11.0313 -19.822,0 -32.749,10.8589 -12.755,10.6865 -14.996,30.1636 l -31.715,-2.9302 q 3.448,-29.1294 24.648,-46.3657 21.373,-17.2363 54.812,-17.2363 36.713,0 56.363,17.4087 19.821,17.2363 19.821,49.1235 0,14.1338 -6.549,28.0952 -6.378,13.9614 -19.133,27.9229 -12.755,13.9614 -48.778,43.2631 -19.822,16.2022 -31.543,29.3018 -11.721,12.9272 -16.892,24.9927 l 126.687,0 0,26.3715 -160.814,0 z"
       style="fill:#000000;stroke:none"
       id="path4463" /><path
       d="m 16979.992,7637.1772 0,-21.8901 q 8.79,-20.1665 21.373,-35.5068 12.755,-15.5127 26.716,-27.9229 13.961,-12.5825 27.578,-23.269 13.789,-10.6865 24.82,-21.3731 11.032,-10.6865 17.754,-22.4072 6.894,-11.7207 6.894,-26.5439 0,-19.9942 -11.72,-31.0254 -11.721,-11.0313 -32.577,-11.0313 -19.822,0 -32.749,10.8589 -12.755,10.6865 -14.996,30.1636 l -31.714,-2.9302 q 3.447,-29.1294 24.648,-46.3657 21.373,-17.2363 54.811,-17.2363 36.713,0 56.363,17.4087 19.822,17.2363 19.822,49.1235 0,14.1338 -6.55,28.0952 -6.378,13.9614 -19.133,27.9229 -12.754,13.9614 -48.778,43.2631 -19.822,16.2022 -31.543,29.3018 -11.72,12.9272 -16.891,24.9927 l 126.687,0 0,26.3715 -160.815,0 z"
       style="fill:#000000;stroke:none"
       id="path4465" /><path
       d="m 17341.265,7515.6611 q 0,60.8443 -21.545,92.9038 -21.373,32.0596 -63.258,32.0596 -41.884,0 -62.912,-31.8872 -21.029,-31.8872 -21.029,-93.0762 0,-62.5678 20.339,-93.7656 20.512,-31.1977 64.637,-31.1977 42.918,0 63.257,31.5425 20.511,31.5424 20.511,93.4208 z m -31.542,0 q 0,-52.5708 -12.238,-76.1845 -12.066,-23.6138 -39.988,-23.6138 -28.613,0 -41.195,23.2691 -12.41,23.269 -12.41,76.5292 0,51.709 12.582,75.6675 12.755,23.9585 40.333,23.9585 27.406,0 40.161,-24.4756 12.755,-24.4756 12.755,-75.1504 z"
       style="fill:#000000;stroke:none"
       id="path4467" /></g><g
     style="font-size:11.99999905px"
     id="text414"><path
       d="m 17476.505,7637.1772 0,-21.8901 q 8.791,-20.1665 21.373,-35.5068 12.755,-15.5127 26.717,-27.9229 13.961,-12.5825 27.578,-23.269 13.789,-10.6865 24.82,-21.3731 11.031,-10.6865 17.754,-22.4072 6.894,-11.7207 6.894,-26.5439 0,-19.9942 -11.721,-31.0254 -11.72,-11.0313 -32.576,-11.0313 -19.822,0 -32.749,10.8589 -12.755,10.6865 -14.996,30.1636 l -31.715,-2.9302 q 3.448,-29.1294 24.648,-46.3657 21.373,-17.2363 54.812,-17.2363 36.713,0 56.363,17.4087 19.821,17.2363 19.821,49.1235 0,14.1338 -6.549,28.0952 -6.378,13.9614 -19.133,27.9229 -12.755,13.9614 -48.779,43.2631 -19.821,16.2022 -31.542,29.3018 -11.721,12.9272 -16.892,24.9927 l 126.687,0 0,26.3715 -160.815,0 z"
       style="fill:#000000;stroke:none"
       id="path4456" /><path
       d="m 17836.055,7570.1279 q 0,33.6109 -21.373,52.0537 -21.373,18.4429 -61.016,18.4429 -36.886,0 -58.949,-16.5469 -21.89,-16.7192 -26.027,-49.2959 l 32.06,-2.9301 q 6.205,43.0908 52.916,43.0908 23.441,0 36.713,-11.5484 13.444,-11.5483 13.444,-34.3002 0,-19.8218 -15.34,-30.8531 -15.168,-11.2036 -43.953,-11.2036 l -17.581,0 0,-26.8887 16.892,0 q 25.51,0 39.471,-11.0312 14.134,-11.2036 14.134,-30.853 0,-19.4771 -11.549,-30.6807 -11.376,-11.376 -33.955,-11.376 -20.511,0 -33.266,10.5142 -12.583,10.5142 -14.651,29.6465 l -31.198,-2.4131 q 3.447,-29.8189 24.648,-46.5381 21.373,-16.7192 54.812,-16.7192 36.541,0 56.707,17.0639 20.339,16.8916 20.339,47.2276 0,23.269 -13.1,37.9199 -12.927,14.4785 -37.747,19.6494 l 0,0.6895 q 27.233,2.9301 42.401,18.2705 15.168,15.3403 15.168,38.6093 z"
       style="fill:#000000;stroke:none"
       id="path4458" /><path
       d="m 18034.273,7515.6611 q 0,60.8443 -21.546,92.9038 -21.373,32.0596 -63.257,32.0596 -41.884,0 -62.912,-31.8872 -21.029,-31.8872 -21.029,-93.0762 0,-62.5678 20.339,-93.7656 20.511,-31.1977 64.636,-31.1977 42.919,0 63.258,31.5425 20.511,31.5424 20.511,93.4208 z m -31.543,0 q 0,-52.5708 -12.237,-76.1845 -12.066,-23.6138 -39.989,-23.6138 -28.612,0 -41.194,23.2691 -12.411,23.269 -12.411,76.5292 0,51.709 12.583,75.6675 12.755,23.9585 40.333,23.9585 27.406,0 40.161,-24.4756 12.754,-24.4756 12.754,-75.1504 z"
       style="fill:#000000;stroke:none"
       id="path4460" /></g><g
     style="font-size:11.99999905px"
     id="text422"><path
       d="m 18168.503,7637.1772 0,-21.8901 q 8.791,-20.1665 21.373,-35.5068 12.755,-15.5127 26.717,-27.9229 13.961,-12.5825 27.578,-23.269 13.789,-10.6865 24.82,-21.3731 11.031,-10.6865 17.754,-22.4072 6.894,-11.7207 6.894,-26.5439 0,-19.9942 -11.721,-31.0254 -11.72,-11.0313 -32.576,-11.0313 -19.822,0 -32.749,10.8589 -12.755,10.6865 -14.996,30.1636 l -31.715,-2.9302 q 3.448,-29.1294 24.648,-46.3657 21.373,-17.2363 54.812,-17.2363 36.713,0 56.363,17.4087 19.821,17.2363 19.821,49.1235 0,14.1338 -6.549,28.0952 -6.378,13.9614 -19.133,27.9229 -12.755,13.9614 -48.779,43.2631 -19.821,16.2022 -31.542,29.3018 -11.721,12.9272 -16.892,24.9927 l 126.687,0 0,26.3715 -160.815,0 z"
       style="fill:#000000;stroke:none"
       id="path4449" /><path
       d="m 18499.096,7582.1934 0,54.9838 -29.302,0 0,-54.9838 -114.449,0 0,-24.1309 111.175,-163.7451 32.576,0 0,163.4004 34.128,0 0,24.4756 -34.128,0 z m -29.302,-152.8863 q -0.344,1.0342 -4.826,9.1353 -4.481,8.1011 -6.722,11.376 l -62.223,91.6972 -9.308,12.7549 -2.757,3.4473 85.836,0 0,-128.4107 z"
       style="fill:#000000;stroke:none"
       id="path4451" /><path
       d="m 18726.271,7515.6611 q 0,60.8443 -21.545,92.9038 -21.374,32.0596 -63.258,32.0596 -41.884,0 -62.912,-31.8872 -21.029,-31.8872 -21.029,-93.0762 0,-62.5678 20.339,-93.7656 20.511,-31.1977 64.636,-31.1977 42.919,0 63.258,31.5425 20.511,31.5424 20.511,93.4208 z m -31.543,0 q 0,-52.5708 -12.237,-76.1845 -12.066,-23.6138 -39.989,-23.6138 -28.612,0 -41.194,23.2691 -12.411,23.269 -12.411,76.5292 0,51.709 12.583,75.6675 12.755,23.9585 40.333,23.9585 27.406,0 40.161,-24.4756 12.754,-24.4756 12.754,-75.1504 z"
       style="fill:#000000;stroke:none"
       id="path4453" /></g><g
     style="font-size:11.99999905px"
     id="text430"><path
       d="m 18861.503,7637.1772 0,-21.8901 q 8.791,-20.1665 21.373,-35.5068 12.755,-15.5127 26.717,-27.9229 13.961,-12.5825 27.578,-23.269 13.789,-10.6865 24.82,-21.3731 11.031,-10.6865 17.754,-22.4072 6.894,-11.7207 6.894,-26.5439 0,-19.9942 -11.721,-31.0254 -11.72,-11.0313 -32.576,-11.0313 -19.822,0 -32.749,10.8589 -12.755,10.6865 -14.996,30.1636 l -31.715,-2.9302 q 3.448,-29.1294 24.648,-46.3657 21.373,-17.2363 54.812,-17.2363 36.713,0 56.363,17.4087 19.821,17.2363 19.821,49.1235 0,14.1338 -6.549,28.0952 -6.378,13.9614 -19.133,27.9229 -12.755,13.9614 -48.779,43.2631 -19.821,16.2022 -31.542,29.3018 -11.721,12.9272 -16.892,24.9927 l 126.687,0 0,26.3715 -160.815,0 z"
       style="fill:#000000;stroke:none"
       id="path4442" /><path
       d="m 19221.743,7558.0625 q 0,38.437 -22.925,60.4995 -22.752,22.0625 -63.257,22.0625 -33.956,0 -54.812,-14.8232 -20.855,-14.8233 -26.371,-42.9185 l 31.37,-3.6196 q 9.825,36.0239 50.502,36.0239 24.993,0 39.127,-14.9956 14.134,-15.168 14.134,-41.5395 0,-22.9244 -14.306,-37.0581 -14.134,-14.1338 -38.265,-14.1338 -12.583,0 -23.441,3.9643 -10.859,3.9644 -21.718,13.4444 l -30.336,0 8.101,-130.6514 138.063,0 0,26.3716 -109.796,0 -4.653,77.0464 q 20.166,-15.5127 50.157,-15.5127 35.852,0 57.053,21.0283 21.373,21.0283 21.373,54.8115 z"
       style="fill:#000000;stroke:none"
       id="path4444" /><path
       d="m 19419.271,7515.6611 q 0,60.8443 -21.545,92.9038 -21.374,32.0596 -63.258,32.0596 -41.884,0 -62.912,-31.8872 -21.029,-31.8872 -21.029,-93.0762 0,-62.5678 20.339,-93.7656 20.511,-31.1977 64.636,-31.1977 42.919,0 63.258,31.5425 20.511,31.5424 20.511,93.4208 z m -31.543,0 q 0,-52.5708 -12.237,-76.1845 -12.066,-23.6138 -39.989,-23.6138 -28.612,0 -41.194,23.2691 -12.411,23.269 -12.411,76.5292 0,51.709 12.583,75.6675 12.755,23.9585 40.333,23.9585 27.406,0 40.161,-24.4756 12.754,-24.4756 12.754,-75.1504 z"
       style="fill:#000000;stroke:none"
       id="path4446" /></g><g
     style="font-size:11.99999809px"
     id="text238-1"><path
       d="m 1774.0737,7511.4268 q 0,60.8442 -21.5454,92.9038 -21.3731,32.0595 -63.2573,32.0595 -41.8843,0 -62.9126,-31.8872 -21.0283,-31.8872 -21.0283,-93.0761 0,-62.5679 20.3388,-93.7656 20.5113,-31.1978 64.6363,-31.1978 42.9184,0 63.2573,31.5425 20.5112,31.5425 20.5112,93.4209 z m -31.5425,0 q 0,-52.5708 -12.2378,-76.1846 -12.0654,-23.6137 -39.9882,-23.6137 -28.6123,0 -41.1949,23.269 -12.4101,23.269 -12.4101,76.5293 0,51.709 12.5825,75.6674 12.7549,23.9585 40.333,23.9585 27.4058,0 40.1606,-24.4755 12.7549,-24.4756 12.7549,-75.1504 z"
       style="fill:#000000;stroke:none"
       id="path4439" /></g><path
     d="m 1504.8605,7333.335 0,-149.9999"
     id="path22"
     inkscape:connector-curvature="0"
     style="fill:none;stroke:#b3b3b3;stroke-width:0.99999988;stroke-linejoin:round" /><path
     d="m 1504.8605,7333.335 0,-149.9999"
     id="path24"
     inkscape:connector-curvature="0"
     style="fill:none;stroke:#b3b3b3;stroke-width:0.99999988;stroke-linejoin:round" /><path
     d="m 1354.8605,7183.3351 150,0"
     id="path132"
     inkscape:connector-curvature="0"
     style="fill:none;stroke:#b3b3b3;stroke-width:0.99999988;stroke-linejoin:round" /><path
     d="m 1354.8605,7183.3351 150,0"
     id="path134"
     inkscape:connector-curvature="0"
     style="fill:none;stroke:#b3b3b3;stroke-width:0.99999988;stroke-linejoin:round" /><path
     d="m 1354.8605,6234.3352 150,0"
     id="path136"
     inkscape:connector-curvature="0"
     style="fill:none;stroke:#b3b3b3;stroke-width:0.99999988;stroke-linejoin:round" /><path
     d="m 1354.8605,6234.3352 150,0"
     id="path138"
     inkscape:connector-curvature="0"
     style="fill:none;stroke:#b3b3b3;stroke-width:0.99999988;stroke-linejoin:round" /><path
     d="m 1354.8605,5285.3351 150,0"
     id="path140"
     inkscape:connector-curvature="0"
     style="fill:none;stroke:#b3b3b3;stroke-width:0.99999988;stroke-linejoin:round" /><path
     d="m 1354.8605,5285.3351 150,0"
     id="path142"
     inkscape:connector-curvature="0"
     style="fill:none;stroke:#b3b3b3;stroke-width:0.99999988;stroke-linejoin:round" /><path
     d="m 1354.8605,4337.3352 150,0"
     id="path144"
     inkscape:connector-curvature="0"
     style="fill:none;stroke:#b3b3b3;stroke-width:0.99999988;stroke-linejoin:round" /><path
     d="m 1354.8605,4337.3352 150,0"
     id="path146"
     inkscape:connector-curvature="0"
     style="fill:none;stroke:#b3b3b3;stroke-width:0.99999988;stroke-linejoin:round" /><path
     d="m 1354.8605,3388.3354 150,0"
     id="path148"
     inkscape:connector-curvature="0"
     style="fill:none;stroke:#b3b3b3;stroke-width:0.99999988;stroke-linejoin:round" /><path
     d="m 1354.8605,3388.3354 150,0"
     id="path150"
     inkscape:connector-curvature="0"
     style="fill:none;stroke:#b3b3b3;stroke-width:0.99999988;stroke-linejoin:round" /><path
     d="m 1354.8605,2439.3354 150,0"
     id="path152"
     inkscape:connector-curvature="0"
     style="fill:none;stroke:#b3b3b3;stroke-width:0.99999988;stroke-linejoin:round" /><path
     d="m 1354.8605,2439.3354 150,0"
     id="path154"
     inkscape:connector-curvature="0"
     style="fill:none;stroke:#b3b3b3;stroke-width:0.99999988;stroke-linejoin:round" /><path
     d="m 1354.8605,1491.3355 150,0"
     id="path156"
     inkscape:connector-curvature="0"
     style="fill:none;stroke:#b3b3b3;stroke-width:0.99999988;stroke-linejoin:round" /><path
     d="m 1354.8605,1491.3355 150,0"
     id="path158"
     inkscape:connector-curvature="0"
     style="fill:none;stroke:#b3b3b3;stroke-width:0.99999988;stroke-linejoin:round" /><path
     d="m 1504.8605,7183.3351 0,-5691.9996"
     id="path160"
     inkscape:connector-curvature="0"
     style="fill:none;stroke:#b3b3b3;stroke-width:0.99999988;stroke-linejoin:round" /><g
     style="font-size:11.99999905px"
     id="text438"><path
       d="m 1246.3927,7179.8189 q 0,60.8442 -21.5454,92.9038 -21.3731,32.0595 -63.2573,32.0595 -41.8843,0 -62.9126,-31.8872 -21.0284,-31.8872 -21.0284,-93.0761 0,-62.5679 20.3389,-93.7657 20.5112,-31.1977 64.6362,-31.1977 42.9185,0 63.2574,31.5425 20.5112,31.5424 20.5112,93.4209 z m -31.5425,0 q 0,-52.5708 -12.2378,-76.1846 -12.0654,-23.6138 -39.9883,-23.6138 -28.6123,0 -41.1948,23.2691 -12.4101,23.269 -12.4101,76.5293 0,51.7089 12.5825,75.6674 12.7549,23.9585 40.333,23.9585 27.4057,0 40.1606,-24.4756 12.7549,-24.4755 12.7549,-75.1503 z"
       style="fill:#000000;stroke:none"
       id="path4436" /></g><g
     style="font-size:11.99999905px"
     id="text446"><path
       d="m 1245.3585,6273.2202 q 0,38.437 -22.9243,60.4995 -22.752,22.0625 -63.2573,22.0625 -33.9556,0 -54.8115,-14.8232 -20.856,-14.8233 -26.3716,-42.9185 l 31.3701,-3.6196 q 9.8247,36.0239 50.5024,36.0239 24.9927,0 39.1265,-14.9956 14.1338,-15.1679 14.1338,-41.5395 0,-22.9243 -14.3062,-37.0581 -14.1338,-14.1338 -38.2646,-14.1338 -12.5825,0 -23.4414,3.9643 -10.8589,3.9644 -21.7178,13.4444 l -30.3359,0 8.101,-130.6514 138.063,0 0,26.3716 -109.7954,0 -4.6538,77.0464 q 20.1665,-15.5127 50.1577,-15.5127 35.8516,0 57.0523,21.0283 21.373,21.0283 21.373,54.8115 z"
       style="fill:#000000;stroke:none"
       id="path4433" /></g><g
     style="font-size:11.99999905px"
     id="text454"><path
       d="m 900.74872,5403.3354 0,-26.3715 61.87841,0 0,-186.8418 -54.81152,39.1265 0,-29.3018 57.39697,-39.4712 28.6123,0 0,216.4883 59.12062,0 0,26.3715 -152.19678,0 z"
       style="fill:#000000;stroke:none"
       id="path4428" /><path
       d="m 1252.8869,5281.8193 q 0,60.8443 -21.5454,92.9038 -21.3731,32.0596 -63.2574,32.0596 -41.8842,0 -62.9125,-31.8872 -21.0284,-31.8872 -21.0284,-93.0762 0,-62.5678 20.3389,-93.7656 20.5112,-31.1977 64.6362,-31.1977 42.9185,0 63.2573,31.5425 20.5113,31.5424 20.5113,93.4208 z m -31.5425,0 q 0,-52.5707 -12.2378,-76.1845 -12.0654,-23.6138 -39.9883,-23.6138 -28.6123,0 -41.1948,23.2691 -12.4102,23.269 -12.4102,76.5292 0,51.709 12.5826,75.6675 12.7548,23.9585 40.333,23.9585 27.4057,0 40.1606,-24.4756 12.7549,-24.4756 12.7549,-75.1504 z"
       style="fill:#000000;stroke:none"
       id="path4430" /></g><g
     style="font-size:11.99999905px"
     id="text462"><path
       d="m 900.74872,4454.3354 0,-26.3715 61.87841,0 0,-186.8418 -54.81152,39.1265 0,-29.3018 57.39697,-39.4712 28.6123,0 0,216.4883 59.12062,0 0,26.3715 -152.19678,0 z"
       style="fill:#000000;stroke:none"
       id="path4423" /><path
       d="m 1251.8527,4375.2207 q 0,38.437 -22.9243,60.4995 -22.752,22.0625 -63.2573,22.0625 -33.9556,0 -54.8116,-14.8232 -20.8559,-14.8233 -26.3715,-42.9185 l 31.3701,-3.6196 q 9.8247,36.0239 50.5024,36.0239 24.9927,0 39.1265,-14.9956 14.1338,-15.168 14.1338,-41.5395 0,-22.9244 -14.3062,-37.0581 -14.1338,-14.1338 -38.2646,-14.1338 -12.5826,0 -23.4414,3.9643 -10.8589,3.9644 -21.7178,13.4444 l -30.3359,0 8.101,-130.6514 138.063,0 0,26.3716 -109.7954,0 -4.6538,77.0464 q 20.1665,-15.5127 50.1577,-15.5127 35.8516,0 57.0522,21.0283 21.3731,21.0283 21.3731,54.8115 z"
       style="fill:#000000;stroke:none"
       id="path4425" /></g><g
     style="font-size:11.99999905px"
     id="text470"><path
       d="m 891.61346,3505.3352 0,-21.8901 q 8.79053,-20.1665 21.37305,-35.5069 12.75488,-15.5127 26.7163,-27.9228 13.96143,-12.5825 27.57813,-23.2691 13.78906,-10.6865 24.82031,-21.373 11.03125,-10.6865 17.75345,-22.4072 6.8945,-11.7207 6.8945,-26.544 0,-19.9941 -11.7207,-31.0254 -11.72071,-11.0312 -32.57667,-11.0312 -19.82177,0 -32.74902,10.8589 -12.75488,10.6865 -14.9956,30.1636 l -31.71484,-2.9302 q 3.44726,-29.1294 24.64795,-46.3657 21.37304,-17.2364 54.81151,-17.2364 36.71337,0 56.36277,17.4087 19.8218,17.2364 19.8218,49.1236 0,14.1337 -6.5498,28.0952 -6.3774,13.9614 -19.1323,27.9228 -12.7549,13.9614 -48.77883,43.2632 -19.82178,16.2021 -31.54248,29.3018 -11.7207,12.9272 -16.8916,24.9926 l 126.68701,0 0,26.3716 -160.81494,0 z"
       style="fill:#000000;stroke:none"
       id="path4418" /><path
       d="m 1252.8869,3383.8191 q 0,60.8442 -21.5454,92.9038 -21.3731,32.0596 -63.2574,32.0596 -41.8842,0 -62.9125,-31.8872 -21.0284,-31.8872 -21.0284,-93.0762 0,-62.5679 20.3389,-93.7656 20.5112,-31.1978 64.6362,-31.1978 42.9185,0 63.2573,31.5425 20.5113,31.5425 20.5113,93.4209 z m -31.5425,0 q 0,-52.5708 -12.2378,-76.1846 -12.0654,-23.6137 -39.9883,-23.6137 -28.6123,0 -41.1948,23.269 -12.4102,23.2691 -12.4102,76.5293 0,51.709 12.5826,75.6675 12.7548,23.9585 40.333,23.9585 27.4057,0 40.1606,-24.4756 12.7549,-24.4756 12.7549,-75.1504 z"
       style="fill:#000000;stroke:none"
       id="path4420" /></g><g
     style="font-size:11.99999905px"
     id="text478"><path
       d="m 891.61346,2556.3354 0,-21.8901 q 8.79053,-20.1665 21.37305,-35.5068 12.75488,-15.5127 26.7163,-27.9229 13.96143,-12.5825 27.57813,-23.269 13.78906,-10.6865 24.82031,-21.3731 11.03125,-10.6865 17.75345,-22.4072 6.8945,-11.7207 6.8945,-26.5439 0,-19.9942 -11.7207,-31.0254 -11.72071,-11.0313 -32.57667,-11.0313 -19.82177,0 -32.74902,10.8589 -12.75488,10.6866 -14.9956,30.1636 l -31.71484,-2.9302 q 3.44726,-29.1294 24.64795,-46.3657 21.37304,-17.2363 54.81151,-17.2363 36.71337,0 56.36277,17.4087 19.8218,17.2363 19.8218,49.1235 0,14.1338 -6.5498,28.0952 -6.3774,13.9614 -19.1323,27.9229 -12.7549,13.9614 -48.77883,43.2631 -19.82178,16.2022 -31.54248,29.3018 -11.7207,12.9272 -16.8916,24.9927 l 126.68701,0 0,26.3715 -160.81494,0 z"
       style="fill:#000000;stroke:none"
       id="path4413" /><path
       d="m 1251.8527,2477.2207 q 0,38.437 -22.9243,60.4995 -22.752,22.0625 -63.2573,22.0625 -33.9556,0 -54.8116,-14.8232 -20.8559,-14.8233 -26.3715,-42.9185 l 31.3701,-3.6196 q 9.8247,36.0239 50.5024,36.0239 24.9927,0 39.1265,-14.9956 14.1338,-15.168 14.1338,-41.5395 0,-22.9244 -14.3062,-37.0581 -14.1338,-14.1338 -38.2646,-14.1338 -12.5826,0 -23.4414,3.9643 -10.8589,3.9644 -21.7178,13.4444 l -30.3359,0 8.101,-130.6514 138.063,0 0,26.3716 -109.7954,0 -4.6538,77.0464 q 20.1665,-15.5127 50.1577,-15.5127 35.8516,0 57.0522,21.0283 21.3731,21.0283 21.3731,54.8115 z"
       style="fill:#000000;stroke:none"
       id="path4415" /></g><g
     style="font-size:11.99999905px"
     id="text486"><path
       d="m 1054.6691,1541.2861 q 0,33.6109 -21.373,52.0537 -21.3731,18.4429 -61.01663,18.4429 -36.88574,0 -58.94824,-16.5469 -21.89013,-16.7192 -26.02685,-49.2959 l 32.05957,-2.9301 q 6.20508,43.0908 52.91552,43.0908 23.44141,0 36.71333,-11.5484 13.4444,-11.5483 13.4444,-34.3002 0,-19.8218 -15.3403,-30.8531 -15.16802,-11.2036 -43.95268,-11.2036 l -17.58105,0 0,-26.8886 16.8916,0 q 25.50976,0 39.47123,-11.0313 14.1337,-11.2036 14.1337,-30.853 0,-19.4771 -11.5483,-30.6807 -11.37597,-11.376 -33.95556,-11.376 -20.51123,0 -33.26611,10.5142 -12.58252,10.5142 -14.65088,29.6465 l -31.19775,-2.4131 q 3.44726,-29.8188 24.64795,-46.5381 21.37304,-16.7192 54.81152,-16.7192 36.54103,0 56.70753,17.0639 20.3388,16.8916 20.3388,47.2276 0,23.269 -13.0996,37.9199 -12.9272,14.4785 -37.74752,19.6494 l 0,0.6895 q 27.23342,2.9301 42.40132,18.2705 15.168,15.3403 15.168,38.6093 z"
       style="fill:#000000;stroke:none"
       id="path4408" /><path
       d="m 1252.8869,1486.8193 q 0,60.8443 -21.5454,92.9038 -21.3731,32.0596 -63.2574,32.0596 -41.8842,0 -62.9125,-31.8872 -21.0284,-31.8872 -21.0284,-93.0762 0,-62.5678 20.3389,-93.7656 20.5112,-31.1977 64.6362,-31.1977 42.9185,0 63.2573,31.5425 20.5113,31.5424 20.5113,93.4208 z m -31.5425,0 q 0,-52.5707 -12.2378,-76.1845 -12.0654,-23.6138 -39.9883,-23.6138 -28.6123,0 -41.1948,23.2691 -12.4102,23.269 -12.4102,76.5292 0,51.709 12.5826,75.6675 12.7548,23.9585 40.333,23.9585 27.4057,0 40.1606,-24.4756 12.7549,-24.4756 12.7549,-75.1504 z"
       style="fill:#000000;stroke:none"
       id="path4410" /></g><path
     d="m 19859.285,3923.2595 -106,0 0,-211 211,0 0,211 -105,0 z"
     id="path502"
     inkscape:connector-curvature="0"
     style="fill:#004586;stroke:none" /><path
     d="m 19859.285,4426.2595 -106,0 0,-211 211,0 0,211 -105,0 z"
     id="path504"
     inkscape:connector-curvature="0"
     style="fill:#ff420e;stroke:none" /><g
     style="font-size:11.99999905px"
     id="text506"><path
       d="m 20126.144,3718.2883 0,90.3184 135.478,0 0,27.2334 -135.478,0 0,98.4194 -32.921,0 0,-242.8598 172.535,0 0,26.8886 -139.614,0 z"
       style="fill:#000000;stroke:none"
       id="path4622" /><path
       d="m 20334.187,3747.7625 0,118.2412 q 0,18.4428 3.619,28.6123 3.62,10.1694 11.548,14.6508 7.929,4.4815 23.27,4.4815 22.407,0 35.334,-15.3403 12.927,-15.3404 12.927,-42.5738 l 0,-108.0717 31.026,0 0,146.6811 q 0,32.5767 1.034,39.8159 l -29.302,0 q -0.172,-0.8618 -0.345,-4.6538 -0.172,-3.792 -0.517,-8.6182 -0.172,-4.9985 -0.517,-18.6152 l -0.517,0 q -10.686,19.3047 -24.82,27.4058 -13.962,7.9287 -34.818,7.9287 -30.68,0 -44.986,-15.168 -14.134,-15.3403 -14.134,-50.5024 l 0,-124.2739 31.198,0 z"
       style="fill:#000000;stroke:none"
       id="path4624" /><path
       d="m 20500.345,3934.2595 0,-255.7871 31.025,0 0,255.7871 -31.025,0 z"
       style="fill:#000000;stroke:none"
       id="path4626" /><path
       d="m 20578.942,3934.2595 0,-255.7871 31.026,0 0,255.7871 -31.026,0 z"
       style="fill:#000000;stroke:none"
       id="path4628" /><path
       d="m 20749.41,3811.7092 q 0,-59.1206 31.714,-91.5249 31.715,-32.4042 89.112,-32.4042 40.333,0 65.498,13.6166 25.165,13.6167 38.782,43.608 l -31.37,9.3076 q -10.342,-20.6836 -28.612,-30.1636 -18.099,-9.48 -45.16,-9.48 -42.056,0 -64.291,25.5098 -22.235,25.3374 -22.235,71.5307 0,46.021 23.614,72.7373 23.614,26.544 65.326,26.544 23.786,0 44.297,-7.2393 20.683,-7.2392 33.438,-19.6494 l 0,-43.7803 -72.565,0 0,-27.5781 102.901,0 0,83.7686 q -19.304,19.6494 -47.4,30.5083 -27.922,10.6865 -60.671,10.6865 -38.093,0 -65.671,-15.168 -27.578,-15.1679 -42.229,-43.6079 -14.478,-28.6123 -14.478,-67.2217 z"
       style="fill:#000000;stroke:none"
       id="path4630" /><path
       d="m 21030.534,3934.2595 0,-143.0615 q 0,-19.6494 -1.034,-43.4355 l 29.302,0 q 1.379,31.7148 1.379,38.0922 l 0.689,0 q 7.412,-23.9584 17.064,-32.749 9.652,-8.7905 27.233,-8.7905 6.205,0 12.583,1.7236 l 0,28.44 q -6.205,-1.7237 -16.547,-1.7237 -19.305,0 -29.474,16.7193 -10.169,16.5469 -10.169,47.5722 l 0,97.2129 -31.026,0 z"
       style="fill:#000000;stroke:none"
       id="path4632" /><path
       d="m 21195.313,3937.7068 q -28.095,0 -42.229,-14.8233 -14.133,-14.8232 -14.133,-40.6777 0,-28.957 18.96,-44.4697 19.132,-15.5127 61.533,-16.5469 l 41.884,-0.6894 0,-10.1695 q 0,-22.7519 -9.652,-32.5766 -9.652,-9.8247 -30.336,-9.8247 -20.856,0 -30.336,7.0669 -9.48,7.0669 -11.376,22.5796 l -32.404,-2.9302 q 7.929,-50.3301 74.806,-50.3301 35.162,0 52.915,16.2021 17.754,16.0298 17.754,46.5381 l 0,80.3213 q 0,13.7891 3.619,20.856 3.62,6.8945 13.789,6.8945 4.482,0 10.17,-1.2065 l 0,19.3046 q -11.721,2.7579 -23.959,2.7579 -17.236,0 -25.165,-8.9629 -7.756,-9.1353 -8.79,-28.44 l -1.035,0 q -11.893,21.3731 -27.75,30.336 -15.685,8.7905 -38.265,8.7905 z m 7.067,-23.2691 q 17.064,0 30.336,-7.7563 13.272,-7.7563 20.856,-21.2007 7.756,-13.6167 7.756,-27.9228 l 0,-15.3404 -33.955,0.6895 q -21.89,0.3447 -33.266,4.4814 -11.204,4.1368 -17.237,12.7549 -6.032,8.6182 -6.032,22.5796 0,15.168 8.101,23.4414 8.273,8.2734 23.441,8.2734 z"
       style="fill:#000000;stroke:none"
       id="path4634" /><path
       d="m 21344.063,3708.1189 0,-29.6465 31.025,0 0,29.6465 -31.025,0 z m 0,226.1406 0,-186.497 31.025,0 0,186.497 -31.025,0 z"
       style="fill:#000000;stroke:none"
       id="path4636" /><path
       d="m 21541.246,3934.2595 0,-118.2412 q 0,-18.4428 -3.619,-28.6123 -3.62,-10.1694 -11.549,-14.6509 -7.928,-4.4814 -23.269,-4.4814 -22.407,0 -35.334,15.3403 -12.927,15.3404 -12.927,42.5738 l 0,108.0717 -31.026,0 0,-146.6811 q 0,-32.5767 -1.034,-39.8159 l 29.302,0 q 0.172,0.8618 0.345,4.6538 0.172,3.792 0.344,8.7905 0.345,4.8262 0.69,18.4429 l 0.517,0 q 10.686,-19.3047 24.648,-27.2334 14.134,-8.1011 34.99,-8.1011 30.68,0 44.814,15.3403 14.306,15.168 14.306,50.3301 l 0,124.2739 -31.198,0 z"
       style="fill:#000000;stroke:none"
       id="path4638" /></g><g
     style="font-size:11.99999905px"
     id="text514"><path
       d="m 20093.223,4437.2598 0,-242.8599 32.921,0 0,215.9712 122.723,0 0,26.8887 -155.644,0 z"
       style="fill:#000000;stroke:none"
       id="path4599" /><path
       d="m 20284.374,4211.1192 0,-29.6465 31.025,0 0,29.6465 -31.025,0 z m 0,226.1406 0,-186.4971 31.025,0 0,186.4971 -31.025,0 z"
       style="fill:#000000;stroke:none"
       id="path4601" /><path
       d="m 20481.557,4437.2598 0,-118.2412 q 0,-18.4429 -3.62,-28.6123 -3.619,-10.1695 -11.548,-14.6509 -7.929,-4.4815 -23.269,-4.4815 -22.407,0 -35.334,15.3404 -12.928,15.3403 -12.928,42.5737 l 0,108.0718 -31.025,0 0,-146.6812 q 0,-32.5766 -1.034,-39.8159 l 29.302,0 q 0.172,0.8618 0.344,4.6538 0.173,3.792 0.345,8.7905 0.345,4.8262 0.689,18.4429 l 0.518,0 q 10.686,-19.3047 24.647,-27.2334 14.134,-8.1011 34.99,-8.1011 30.681,0 44.815,15.3404 14.306,15.1679 14.306,50.3301 l 0,124.2739 -31.198,0 z"
       style="fill:#000000;stroke:none"
       id="path4603" /><path
       d="m 20583.424,4350.561 q 0,32.0596 13.272,49.4683 13.272,17.4087 38.781,17.4087 20.167,0 32.232,-8.1011 12.238,-8.1011 16.547,-20.5112 l 27.234,7.7563 q -16.72,44.125 -76.013,44.125 -41.367,0 -63.084,-24.6479 -21.546,-24.648 -21.546,-73.2544 0,-46.1934 21.546,-70.8413 21.717,-24.648 61.878,-24.648 82.217,0 82.217,99.1089 l 0,4.1367 -133.064,0 z m 101.005,-23.7861 q -2.586,-29.4741 -14.996,-42.9184 -12.41,-13.6167 -35.679,-13.6167 -22.58,0 -35.852,15.1679 -13.099,14.9956 -14.133,41.3672 l 100.66,0 z"
       style="fill:#000000;stroke:none"
       id="path4605" /><path
       d="m 20803.704,4440.707 q -28.095,0 -42.229,-14.8232 -14.134,-14.8233 -14.134,-40.6777 0,-28.9571 18.96,-44.4698 19.133,-15.5127 61.534,-16.5468 l 41.884,-0.6895 0,-10.1694 q 0,-22.752 -9.652,-32.5767 -9.653,-9.8247 -30.336,-9.8247 -20.856,0 -30.336,7.0669 -9.48,7.0669 -11.376,22.5796 l -32.404,-2.9302 q 7.928,-50.3301 74.805,-50.3301 35.162,0 52.916,16.2022 17.753,16.0298 17.753,46.5381 l 0,80.3213 q 0,13.789 3.62,20.8559 3.62,6.8945 13.789,6.8945 4.481,0 10.169,-1.2065 l 0,19.3047 q -11.72,2.7578 -23.958,2.7578 -17.236,0 -25.165,-8.9629 -7.756,-9.1352 -8.791,-28.4399 l -1.034,0 q -11.893,21.373 -27.75,30.3359 -15.685,8.7905 -38.265,8.7905 z m 7.067,-23.269 q 17.064,0 30.336,-7.7564 13.272,-7.7563 20.856,-21.2006 7.756,-13.6167 7.756,-27.9229 l 0,-15.3403 -33.955,0.6894 q -21.891,0.3448 -33.267,4.4815 -11.203,4.1367 -17.236,12.7549 -6.033,8.6181 -6.033,22.5795 0,15.168 8.102,23.4415 8.273,8.2734 23.441,8.2734 z"
       style="fill:#000000;stroke:none"
       id="path4607" /><path
       d="m 20953.315,4437.2598 0,-143.0615 q 0,-19.6495 -1.034,-43.4356 l 29.302,0 q 1.379,31.7149 1.379,38.0923 l 0.689,0 q 7.412,-23.9585 17.064,-32.749 9.653,-8.7906 27.234,-8.7906 6.205,0 12.582,1.7237 l 0,28.4399 q -6.205,-1.7236 -16.547,-1.7236 -19.304,0 -29.474,16.7192 -10.169,16.5469 -10.169,47.5723 l 0,97.2129 -31.026,0 z"
       style="fill:#000000;stroke:none"
       id="path4609" /><path
       d="m 21162.392,4314.7095 q 0,-59.1206 31.715,-91.5249 31.715,-32.4043 89.112,-32.4043 40.333,0 65.498,13.6167 25.165,13.6167 38.781,43.6079 l -31.37,9.3076 q -10.342,-20.6836 -28.612,-30.1636 -18.098,-9.4799 -45.159,-9.4799 -42.057,0 -64.292,25.5097 -22.235,25.3374 -22.235,71.5308 0,46.021 23.614,72.7373 23.614,26.5439 65.326,26.5439 23.786,0 44.297,-7.2392 20.684,-7.2393 33.439,-19.6494 l 0,-43.7803 -72.565,0 0,-27.5781 102.901,0 0,83.7685 q -19.305,19.6494 -47.4,30.5083 -27.923,10.6865 -60.672,10.6865 -38.092,0 -65.671,-15.1679 -27.578,-15.168 -42.229,-43.6079 -14.478,-28.6123 -14.478,-67.2217 z"
       style="fill:#000000;stroke:none"
       id="path4611" /><path
       d="m 21443.516,4437.2598 0,-143.0615 q 0,-19.6495 -1.034,-43.4356 l 29.302,0 q 1.379,31.7149 1.379,38.0923 l 0.689,0 q 7.412,-23.9585 17.064,-32.749 9.653,-8.7906 27.234,-8.7906 6.205,0 12.582,1.7237 l 0,28.4399 q -6.205,-1.7236 -16.547,-1.7236 -19.304,0 -29.474,16.7192 -10.169,16.5469 -10.169,47.5723 l 0,97.2129 -31.026,0 z"
       style="fill:#000000;stroke:none"
       id="path4613" /><path
       d="m 21608.296,4440.707 q -28.095,0 -42.229,-14.8232 -14.134,-14.8233 -14.134,-40.6777 0,-28.9571 18.96,-44.4698 19.132,-15.5127 61.534,-16.5468 l 41.884,-0.6895 0,-10.1694 q 0,-22.752 -9.652,-32.5767 -9.653,-9.8247 -30.336,-9.8247 -20.856,0 -30.336,7.0669 -9.48,7.0669 -11.376,22.5796 l -32.405,-2.9302 q 7.929,-50.3301 74.806,-50.3301 35.162,0 52.916,16.2022 17.753,16.0298 17.753,46.5381 l 0,80.3213 q 0,13.789 3.62,20.8559 3.619,6.8945 13.789,6.8945 4.481,0 10.169,-1.2065 l 0,19.3047 q -11.721,2.7578 -23.958,2.7578 -17.237,0 -25.165,-8.9629 -7.757,-9.1352 -8.791,-28.4399 l -1.034,0 q -11.893,21.373 -27.751,30.3359 -15.685,8.7905 -38.264,8.7905 z m 7.067,-23.269 q 17.064,0 30.336,-7.7564 13.272,-7.7563 20.856,-21.2006 7.756,-13.6167 7.756,-27.9229 l 0,-15.3403 -33.956,0.6894 q -21.89,0.3448 -33.266,4.4815 -11.203,4.1367 -17.236,12.7549 -6.033,8.6181 -6.033,22.5795 0,15.168 8.101,23.4415 8.274,8.2734 23.442,8.2734 z"
       style="fill:#000000;stroke:none"
       id="path4615" /><path
       d="m 21757.045,4211.1192 0,-29.6465 31.026,0 0,29.6465 -31.026,0 z m 0,226.1406 0,-186.4971 31.026,0 0,186.4971 -31.026,0 z"
       style="fill:#000000;stroke:none"
       id="path4617" /><path
       d="m 21954.229,4437.2598 0,-118.2412 q 0,-18.4429 -3.62,-28.6123 -3.619,-10.1695 -11.548,-14.6509 -7.929,-4.4815 -23.269,-4.4815 -22.407,0 -35.335,15.3404 -12.927,15.3403 -12.927,42.5737 l 0,108.0718 -31.025,0 0,-146.6812 q 0,-32.5766 -1.034,-39.8159 l 29.301,0 q 0.173,0.8618 0.345,4.6538 0.172,3.792 0.345,8.7905 0.345,4.8262 0.689,18.4429 l 0.517,0 q 10.687,-19.3047 24.648,-27.2334 14.134,-8.1011 34.99,-8.1011 30.681,0 44.814,15.3404 14.307,15.1679 14.307,50.3301 l 0,124.2739 -31.198,0 z"
       style="fill:#000000;stroke:none"
       id="path4619" /></g></svg>